<svg width="242" height="261" viewBox="0 0 242 261" fill="none" xmlns="http://www.w3.org/2000/svg">
<path d="M229.658 63.0658L217.571 64.5639L197.252 80.7414L198.613 87.9992L180.575 90.9488L173.129 87.5389L171.767 79.7663L164.456 79.9433L166.183 93.3462L147.617 93.7842L122.337 85.9943L100.519 74.0349L106.722 61.8671L91.0152 51.1984L89.7254 40.9121L93.9493 43.4824L98.484 40.6299L93.277 30.8958L103.02 22.0014L105.076 14.8063L97.3218 12.1025L83.0311 14.6171L68.2483 1.02307L51.9418 2.16206L46.7318 8.8018L58.4579 17.5476L55.5532 20.5427L52.6566 21.1668L52.4713 34.8428L62.8084 41.1508L33.8382 80.4642L21.5451 79.2888L13.7725 89.8432L25.7893 109.776L16.5395 114.062L6.27534 112.311L1.31738 116.897L9.7126 125.654L8.90568 133.396L23.2521 145.701L23.5518 145.471L37.321 141.323L39.0746 148.605L39.351 170.174L57.9406 225.387L62.4622 234.075L68.5966 254.354L73.51 259.977L82.2282 259.308L83.8886 253.894L98.5347 237.14V235.596L98.235 227.854L98.5812 226.748L102.64 213.266L102.226 213.013L102.387 212.622L102.64 213.266L102.479 212.483L100.404 199.048L102.226 193.08L135.07 169.229L140.905 161.486L144.526 155.772L154.49 153.214L163.093 138.166L168.582 134.801L176.632 136.968L169.597 105.628L169.274 93.9915L179.215 95.9034L180.829 102.61L185.559 104.983L202.326 105.214L200.665 109.545L202.118 117.059L205.74 130.7L211.783 121.551L210.56 113.417L216.418 114.039L220.686 99.7745L224.653 88.4605L236.369 81.0641L240.682 74.657L229.658 63.0658Z" fill="#FCDA05" stroke="#FCDA05"/>
</svg>
