<svg width="25" height="26" viewBox="0 0 25 26" fill="none" xmlns="http://www.w3.org/2000/svg">
<path d="M19.1812 22.9167C18.8627 24.5333 17.4755 25.75 15.8125 25.75H3.4375C1.53902 25.75 0 24.1643 0 22.2083V12.2917C0 10.5782 1.18096 9.149 2.75 8.82085V7.33333C2.75 3.42132 5.82804 0.25 9.625 0.25C13.422 0.25 16.5 3.42132 16.5 7.33333V8.82085C18.069 9.149 19.25 10.5782 19.25 12.2917V14.4167H21.3125C23.211 14.4167 24.75 16.0023 24.75 17.9583V19.375C24.75 21.331 23.211 22.9167 21.3125 22.9167H19.1812ZM17.7576 22.9167H11.6875C9.78902 22.9167 8.25 21.331 8.25 19.375V17.9583C8.25 16.0023 9.78902 14.4167 11.6875 14.4167H17.875V12.2917C17.875 11.1732 17.0363 10.2565 15.9715 10.1729C15.9205 10.1853 15.8672 10.1919 15.8125 10.1919C15.7493 10.1919 15.688 10.1831 15.6299 10.1667H3.4375C2.29841 10.1667 1.375 11.1181 1.375 12.2917V22.2083C1.375 23.3819 2.29841 24.3333 3.4375 24.3333H15.8125C16.7105 24.3333 17.4745 23.742 17.7576 22.9167ZM4.125 8.75H15.125V7.33333C15.125 4.20372 12.6626 1.66667 9.625 1.66667C6.58743 1.66667 4.125 4.20372 4.125 7.33333V8.75ZM23.375 19.375V17.9583C23.375 16.7847 22.4516 15.8333 21.3125 15.8333H11.6875C10.5484 15.8333 9.625 16.7847 9.625 17.9583V19.375C9.625 20.5486 10.5484 21.5 11.6875 21.5H21.3125C22.4516 21.5 23.375 20.5486 23.375 19.375ZM11.6875 17.25H13.0625C13.4422 17.25 13.75 17.5671 13.75 17.9583V19.375C13.75 19.7662 13.4422 20.0833 13.0625 20.0833H11.6875C11.3078 20.0833 11 19.7662 11 19.375V17.9583C11 17.5671 11.3078 17.25 11.6875 17.25ZM15.8125 17.25H17.1875C17.5672 17.25 17.875 17.5671 17.875 17.9583V19.375C17.875 19.7662 17.5672 20.0833 17.1875 20.0833H15.8125C15.4328 20.0833 15.125 19.7662 15.125 19.375V17.9583C15.125 17.5671 15.4328 17.25 15.8125 17.25ZM19.9375 17.25H21.3125C21.6922 17.25 22 17.5671 22 17.9583V19.375C22 19.7662 21.6922 20.0833 21.3125 20.0833H19.9375C19.5578 20.0833 19.25 19.7662 19.25 19.375V17.9583C19.25 17.5671 19.5578 17.25 19.9375 17.25Z" fill="#FCDA05"/>
</svg>
