<svg width="56" height="40" viewBox="0 0 56 40" fill="none" xmlns="http://www.w3.org/2000/svg">
<path d="M41.1625 38.9H28.3375C27.5319 38.9 26.7593 38.58 26.1897 38.0103C25.62 37.4407 25.3 36.6681 25.3 35.8625V6.50001H17.2V19.6625C17.2 20.4681 16.88 21.2407 16.3103 21.8103C15.7407 22.38 14.9681 22.7 14.1625 22.7H2.35C1.99196 22.7 1.64858 22.5578 1.39541 22.3046C1.14223 22.0514 1 21.708 1 21.35V18.65C1 18.292 1.14223 17.9486 1.39541 17.6954C1.64858 17.4422 1.99196 17.3 2.35 17.3H11.8V4.13751C11.8 3.33191 12.12 2.55931 12.6897 1.98967C13.2593 1.42003 14.0319 1.10001 14.8375 1.10001H27.6625C28.4681 1.10001 29.2407 1.42003 29.8103 1.98967C30.38 2.55931 30.7 3.33191 30.7 4.13751V33.5H38.8V20.3375C38.8 19.5319 39.12 18.7593 39.6897 18.1897C40.2593 17.62 41.0319 17.3 41.8375 17.3H53.65C54.008 17.3 54.3514 17.4422 54.6046 17.6954C54.8578 17.9486 55 18.292 55 18.65V21.35C55 21.708 54.8578 22.0514 54.6046 22.3046C54.3514 22.5578 54.008 22.7 53.65 22.7H44.2V35.8625C44.2 36.6681 43.88 37.4407 43.3103 38.0103C42.7407 38.58 41.9681 38.9 41.1625 38.9Z" fill="#FCDA05" stroke="#FCDA05"/>
</svg>
