<svg width="36" height="34" viewBox="0 0 57 52" fill="none" xmlns="http://www.w3.org/2000/svg">
<path d="M35.0082 51.9984C34.4526 52.019 33.9067 51.8409 33.4592 51.4932C33.0116 51.1454 32.6887 50.6484 32.5427 50.0828L30.0997 42.3129C28.2728 36.5026 20.1252 36.2983 18.0094 42.0098V42.0098C17.8461 42.5271 17.5328 42.9772 17.1136 43.2964C16.6945 43.6156 16.1907 43.7878 15.6737 43.7886C15.1711 43.802 14.6747 43.6684 14.2396 43.4028C13.8045 43.1372 13.4475 42.7498 13.2082 42.2834L11.2761 38.1522C10.0165 35.4587 6.36402 35.0294 4.51421 37.3575V37.3575C4.06398 37.8971 3.43055 38.2282 2.75072 38.2795C2.0709 38.3307 1.39926 38.0978 0.880879 37.6312C0.369197 37.1565 0.0551593 36.4885 0.0066004 35.7717C-0.0419585 35.0548 0.17886 34.3466 0.621356 33.8L7.10944 25.5901C7.37023 25.2467 7.70942 24.9787 8.09523 24.8112C8.48105 24.6436 8.90087 24.5821 9.31539 24.6323C9.75078 24.6885 10.1669 24.8546 10.5284 25.1167C10.8898 25.3787 11.1859 25.7289 11.3916 26.1375V26.1375C12.8365 29.1846 17.2398 28.9787 18.3939 25.8099L22.1618 15.4647C22.3457 14.9214 22.6876 14.4533 23.1388 14.1272C23.5901 13.8012 24.1275 13.6337 24.6743 13.6489C25.2211 13.6641 25.7494 13.8611 26.1837 14.2117C26.6181 14.5624 26.9362 15.0488 27.0927 15.6015V15.6015C29.2861 22.5009 39.1503 22.199 40.9176 15.1784L44.2213 2.05532C44.337 1.48716 44.63 0.976273 45.0534 0.604242C45.4767 0.232211 46.0061 0.0204837 46.557 0.00286456C47.1294 -0.0247703 47.6945 0.148165 48.1639 0.494693C48.6334 0.84122 48.9809 1.34185 49.1522 1.91849L56.9379 26.548C57.0791 27.2163 56.9775 27.9163 56.6532 28.5095C56.3289 29.1028 55.8055 29.5463 55.1863 29.7525C54.567 29.9587 53.897 29.9126 53.3084 29.6233C52.7198 29.3341 52.2554 28.8226 52.007 28.1899V28.1899C50.5554 23.6373 44.0458 23.8393 42.8793 28.4731L37.4737 49.9459C37.3579 50.5141 37.0649 51.025 36.6416 51.397C36.2182 51.7691 35.6888 51.9808 35.138 51.9984H35.0082Z" fill="#FCDA05" stroke="#FCDA05" stroke-width="0.00048"/>
</svg>
