<svg width="199" height="266" viewBox="0 0 199 266" fill="none" xmlns="http://www.w3.org/2000/svg">
<path d="M185.286 0.000792725C185.01 0.0195434 184.629 0.304033 184.414 0.378073C184.199 0.989049 183.501 0.556817 183.051 0.552756C182.638 0.310044 182.187 0.0268978 181.68 0.351816C181.337 0.609387 181.437 1.60201 182.045 1.15171C182.472 0.778347 182.563 2.01019 183.177 1.59118C183.771 1.37974 184.04 2.28561 183.666 2.49167C183.256 2.49026 182.425 2.15446 182.28 2.54474C182.173 2.92656 181.975 3.80894 181.577 3.6951C181.265 3.54201 180.517 3.81991 180.186 4.12987C180.329 4.67752 180.037 5.21968 180.252 5.75619C179.934 6.36178 179.402 6.05551 178.919 6.1893C178.718 6.53455 178.784 7.45253 179.273 7.43806C180.019 7.34866 179.764 8.55553 179.119 8.13568C179.357 8.79998 178.554 9.19948 178.415 9.74126C177.974 9.3065 177.507 9.35209 177.309 9.92949C176.91 10.27 176.469 10.4761 175.994 10.6564C175.66 11.2402 175.088 10.5984 174.847 11.3375C174.184 11.3263 173.527 11.4865 172.877 11.2728C172.239 11.0808 172.1 11.7897 171.817 12.1802C171.294 12.6912 170.765 11.8619 170.362 11.5539C169.861 11.0873 170.013 12.2077 169.777 12.4831C169.477 12.8755 168.441 12.4867 168.606 13.1749C169.283 13.4992 169.731 14.1468 170.444 14.3944C170.888 14.6169 171.866 14.8221 171.571 15.5061C171.07 15.4235 170.771 15.7846 170.417 16.0622C169.954 16.0486 169.523 17.0977 169.374 16.2009C169.223 15.755 168.888 15.4254 168.451 15.2783C168.426 15.857 167.766 15.94 167.49 16.2164C166.708 16.0765 167.239 15.6053 167.354 15.0912C167.491 14.1612 166.769 14.8106 166.447 14.9693C165.906 14.8148 166.262 13.9397 166.665 13.7396C166.989 13.2826 166.31 12.7589 166.037 12.3853C165.972 13.2106 165.497 12.9683 165.077 12.8035C164.578 12.5902 164.093 12.752 164.158 13.4129C163.71 13.5259 163.377 13.4075 162.967 13.0948C162.48 13.1379 161.99 13.5252 162.028 14.0832C161.551 14.2777 160.998 13.9901 160.683 13.6185C160.299 13.2375 160.058 12.7371 159.854 12.2711C159.724 11.7362 159.94 10.8542 159.173 10.7916C158.442 10.6572 157.55 11.0126 156.909 10.4585C155.58 10.2815 154.135 10.1621 152.92 10.848C152.578 11.1041 151.399 11.2738 152.248 11.6531C152.732 11.8775 153.219 12.2931 153.775 12.1827C154.714 12.0513 153.819 12.7225 154.002 13.1454C153.608 13.5881 153.343 14.2408 153.509 14.8305C153.427 15.1778 153.618 16.2585 153.945 15.5691C154.265 15.3753 154.716 14.8119 155.143 14.9828C155.637 15.6564 154.758 15.7255 154.299 15.9041C153.963 16.0914 154.377 16.8709 154.078 17.1373C153.524 16.9762 152.966 17.0842 152.422 17.1274C151.767 17.146 151.626 17.6556 151.501 18.0577C151.429 18.9507 150.711 17.9076 150.553 18.3524C150.656 18.8272 150.279 19.5255 150.818 19.7537C150.873 20.2976 149.92 19.9493 149.848 20.0729C149.475 20.3645 148.703 20.2378 148.734 20.9853C148.82 21.7563 147.762 21.3776 148.189 20.7128C148.016 20.3007 147.443 20.1539 147 20.236C146.971 20.0909 146.935 19.9467 146.924 19.7988C147.056 18.827 146.108 19.6635 145.967 19.1968C145.71 18.6973 145.655 19.0325 145.528 19.4118C145.448 19.6528 145.341 19.9578 145.128 19.9295C144.783 19.3362 143.805 19.5036 144.319 20.2587C144.592 20.5843 144.271 21.3243 143.875 21.6094C143.31 21.7147 142.821 21.8352 142.706 22.4969C142.723 23.0123 141.725 23.4769 142.219 23.7076C142.074 24.1724 142.523 24.6597 142.14 25.1896C141.758 25.5409 141.161 25.9083 140.622 25.6509C139.951 25.1344 138.97 24.6302 138.223 25.2805C137.592 25.8299 136.56 25.3042 136.381 24.5788C136.42 23.7377 135.114 24.1822 134.932 23.4718C134.54 23.1134 133.701 23.5937 133.458 22.914C133.192 22.205 132.084 22.2889 131.822 22.9395C131.23 23.1657 130.871 22.589 130.356 22.9043C129.494 22.4174 129.638 23.5117 129.207 23.6318C128.7 23.6187 128.426 24.9012 129.31 24.6009C129.682 24.2795 130.637 25.1482 130.122 25.1581C129.559 24.7942 128.757 25.2708 128.095 25.1661C127.823 24.6358 128.144 24.0143 128.035 23.4411C127.793 22.9212 128.523 22.119 127.811 21.9295C127.02 21.5863 127.202 22.8817 126.562 22.6534C125.954 22.7152 125.372 22.7429 124.791 22.4906C124.236 22.0786 123.694 22.8963 123.379 23.2957C122.867 23.734 122.079 23.7934 121.426 23.9146C120.912 23.7779 120.425 23.4158 119.834 23.4508C119.106 23.1953 119.485 24.3867 119.24 24.8245C119.154 25.3699 119.168 26.2607 118.42 25.723C117.879 25.7203 117.334 25.2518 116.858 25.3325C116.663 26.1043 115.981 26.5345 115.42 27.0168C114.914 27.273 116.082 27.8315 116.259 28.2775C115.726 28.3119 116.144 29.0639 116.453 29.5528C117.13 30.1124 116.177 30.4605 115.737 30.0696C115.595 30.8425 115.082 31.4659 114.823 32.194C114.742 32.6049 114.704 33.0676 114.481 33.4571C114.421 33.5609 114.348 33.6594 114.258 33.7504C113.984 34.1841 114.35 34.9016 114.343 35.367C113.725 35.6133 114.168 36.3359 113.659 36.7374C113.948 37.4622 113.028 37.6072 112.866 38.0135C112.908 38.3478 111.834 38.3585 111.964 38.7172C111.847 39.2783 112.292 39.3992 112.119 39.8623C111.433 40.3277 112.651 41.029 111.848 41.1152C112.26 41.613 111.251 41.5828 110.946 41.7648C110.245 41.2823 110.87 40.9606 110.947 40.6948C110.363 40.6807 110.191 40.2577 110.201 39.6959C109.951 40.5383 109.759 39.6988 109.439 39.3662C108.979 38.7694 108.37 39.3999 109.109 39.7921C109.221 40.3805 110.17 40.2511 110.146 40.8143C109.821 41.4642 109.353 40.2231 109.386 40.8673C108.886 41.2025 109.193 41.4404 109.548 41.7664C109.399 42.2544 109.054 42.7305 108.422 42.7446C107.621 42.3779 107.531 42.8136 107.698 43.5395C107.882 43.9909 107.763 44.3654 107.625 44.8939C107.304 44.9908 106.582 44.6512 106.05 44.9035C105.717 44.3499 105.157 44.9203 104.731 44.9671C104.27 44.9528 103.798 44.9394 103.347 45.0475C103.119 44.9916 102.895 44.8734 102.708 44.7242C102.296 44.4707 101.979 44.0952 101.567 43.8425C101.444 43.6942 101.263 43.8053 101.104 43.8162C100.898 43.6198 100.692 43.4233 100.485 43.2269C100.282 43.1099 100.03 43.0772 99.8072 42.9931C99.6549 43.0221 99.5135 43.0942 99.4884 42.8726C99.324 42.7607 99.3475 42.5265 99.2705 42.3577C99.0193 42.024 98.7281 41.712 98.4616 41.3867C98.3751 41.2641 98.3231 41.0939 98.1398 41.149C97.6941 41.1194 97.2381 41.1782 96.8022 41.0644C96.699 41.1229 96.515 41.2252 96.5181 41.3706C96.4837 41.5935 96.4838 41.8141 96.5567 42.0296C96.2571 42.0102 95.9578 41.991 95.6582 41.9715C95.4739 41.9312 95.2366 42.0175 95.1058 41.8496C95.0143 41.7121 94.8407 41.7087 94.711 41.6559C94.6452 41.4835 94.916 41.4735 95.0119 41.3789C95.2324 41.3263 95.1458 41.1652 95.0144 41.0619C94.841 40.8722 95.166 40.9651 95.2453 40.9019C95.3513 40.7295 95.5684 40.845 95.7112 40.7634C95.8318 40.6197 96.0117 40.6172 96.1834 40.5945C96.3262 40.3222 96.5236 40.0744 96.595 39.77C96.4604 39.3896 96.3262 39.0093 96.1916 38.6288C96.0994 38.4877 96.1613 38.3389 96.1988 38.1913L95.8054 38.0702C95.1982 38.3327 94.8079 37.5586 94.2677 37.7861C93.8269 37.4017 93.2887 37.9179 92.7789 37.6982C92.3887 37.337 91.7375 37.3956 91.3525 37.2576C91.3031 36.609 90.842 36.2338 90.2662 36.0779C89.889 35.7267 89.3938 35.478 89.2275 34.88C88.4953 35.1907 88.94 34.1017 88.0348 34.3049C87.9814 33.3896 87.3414 34.2367 86.8267 33.9046C86.0618 33.2132 86.5915 34.1887 86.0963 34.2391C86.1176 34.7927 85.3013 35.0174 85.3921 35.34C86.2458 35.7867 85.4576 36.2196 84.8816 36.1086C84.559 35.8603 84.6016 35.1802 84.1716 34.7758C83.2065 35.1934 83.6196 34.2455 83.3092 34.0116C82.8962 34.1064 83.0462 32.9141 82.346 33.6965C82.39 34.2632 82.8403 34.6634 82.3229 35.2501C81.9211 35.1157 81.0048 35.0683 81.2533 34.4992C81.3 33.8484 81.7215 33.5412 82.1209 33.2352C83.0499 32.8375 81.2971 32.9124 81.719 32.4969C82.662 32.2616 81.4978 31.8657 81.1823 32.3234C80.7674 32.4982 80.1543 32.4523 79.8766 33.0329C79.3152 32.9056 78.772 33.1809 78.2271 33.084C77.816 33.3421 76.9327 32.6257 76.9746 33.4494C76.4983 33.6146 76.0668 34.1207 75.521 33.9381C74.9716 34.143 75.0889 34.9028 75.753 34.8518C76.1758 35.1415 75.7446 35.6652 75.5235 35.961C76.0095 36.6165 75.7895 36.6268 75.1612 36.9682C75.0843 37.4424 74.188 37.8142 74.6964 38.2988C75.5072 38.4514 75.0082 39.2189 74.411 39.275C73.9222 39.0975 73.1543 39.8809 73.9225 40.0193C74.3605 40.2029 73.6103 40.9566 73.5081 41.3809C73.0612 41.249 72.1479 41.0912 72.5753 41.8286C73.0319 42.4161 72.0996 42.8404 71.7666 42.4422C71.5246 41.6221 71.0998 42.3712 71.0726 42.9013C70.7033 43.256 70.0385 43.2057 69.5311 43.1559C69.457 42.5254 69.8867 42.0019 68.9815 42.0329C67.9732 42.1607 66.969 42.4435 65.9971 42.7847C65.6039 42.926 65.545 43.9434 66.0456 44.1465C66.4037 44.8247 65.4634 44.8536 65.3968 45.469C65.4934 46.2363 65.1737 46.9356 64.8378 47.5793C64.7081 48.2302 65.188 48.6498 65.1742 49.2576C65.188 49.9829 65.288 50.3745 66.1021 50.3284C67.0354 50.2337 66.2324 51.1625 65.8186 51.3372C65.2599 51.6986 64.7796 52.2426 65.7968 52.1761C66.3867 52.3603 66.7114 51.4386 67.1226 51.2399C67.7369 51.6321 67.3106 52.4028 67.2289 52.9812C67.2799 53.5303 66.887 54.2053 67.2579 54.7092C67.0535 55.2058 66.7424 55.7379 66.7652 56.3555C66.6375 56.8192 66.6525 57.1974 66.2029 57.4655C65.5173 57.483 65.6556 58.4662 65.0061 58.6841C64.4311 58.8413 64.4846 59.7381 64.0559 60.115C63.4081 60.2596 63.4817 61.1019 62.64 60.8715C62.4237 61.3018 61.8804 61.7984 61.3005 61.4914C60.9235 61.0408 60.5257 61.4586 60.1929 61.7778C60.1414 62.2905 59.837 62.7781 60.4161 63.1111C60.5301 63.3192 60.6512 63.5487 60.5657 63.7568C60.4801 63.9649 59.9672 64.4605 60.0741 64.6686C60.1811 64.8768 60.7369 64.7473 60.8368 64.898C60.9366 65.0487 61.1078 65.1275 61.2646 65.1849C61.4215 65.2423 62.1058 65.3502 62.2912 65.3215C62.4766 65.2928 62.4623 65.0849 62.6477 65.0849C62.8331 65.0849 63.147 65.1779 63.2825 65.099C63.418 65.02 63.3895 64.7833 63.639 64.8121C63.8885 64.8408 64.0522 64.9625 64.2732 65.0702C64.4943 65.1779 64.7724 65.2638 64.808 65.149C64.8437 65.0342 64.8437 64.9269 65.0006 64.9914C65.1574 65.056 65.3212 65.1777 65.4852 65.1274C65.6492 65.0772 65.6924 65.0559 65.9277 65.099C66.163 65.142 66.3338 64.7902 66.5619 64.7615C66.7901 64.7328 66.8614 64.6753 67.0468 64.9121C67.2322 65.149 67.4392 64.8119 67.6174 64.934C67.7957 65.0559 67.931 65.2137 68.1235 65.2208C68.316 65.2281 68.9009 64.9341 69.1077 65.0489C69.3144 65.1638 69.5562 65.1205 69.7915 65.2783C70.0268 65.4362 71.0251 65.8453 71.2889 65.9171C71.5527 65.9889 72.109 65.7162 72.3871 65.9099C72.6651 66.1037 72.8076 66.111 72.8218 66.398C72.8361 66.6851 72.9075 66.807 73.0786 66.929C73.2497 67.051 73.364 67.1872 73.3497 67.4599C73.3355 67.7326 73.2283 67.8616 73.5492 68.1415C73.87 68.4214 74.6616 68.8164 74.6901 68.9887C74.7186 69.1609 74.7185 69.4191 74.5545 69.4837C74.3905 69.5483 74.262 69.6489 74.1052 70.0006C73.9483 70.3522 73.8627 70.8545 73.6916 70.9837C73.5205 71.1129 72.4295 71.6724 72.3154 71.8447C72.2014 72.0169 71.624 72.9643 71.4671 73.1078C71.3103 73.2514 70.8612 74.1056 70.6687 74.5147C70.4762 74.9237 70.3461 75.3181 70.3461 75.3181C70.3461 75.3181 70.0549 75.8406 69.9934 75.9644C69.932 76.0881 69.7708 76.578 69.7708 76.578C69.7565 76.7944 69.7998 77.0233 69.8075 77.2446C69.4749 77.3833 68.9112 77.466 68.7806 77.0268C68.2098 77.3928 67.4983 77.4487 66.8658 77.7046C66.3644 77.9886 65.9191 77.5772 65.4687 77.9555C65.0032 78.0671 64.4707 77.5805 63.9784 77.7325C63.4122 77.7795 63.0089 78.324 62.4796 77.9345C62.0181 77.9993 61.3916 77.588 61.069 77.6987C61.1298 78.3655 60.8952 79.0446 60.7034 79.6894C60.8813 80.3926 60.6772 80.3372 60.2838 79.9909C59.8147 79.4499 59.4574 79.703 59.5967 80.3555C59.7584 80.8142 59.6018 81.2652 59.5529 81.7242C59.7694 82.0364 59.7413 82.6686 59.3881 83.1153C59.1735 83.5576 59.0182 84.0155 58.9804 84.5401C58.6517 84.9985 58.5607 85.3994 58.1651 85.754C58.1038 86.2775 57.6515 86.8334 57.6414 85.9837C57.3008 85.8612 56.6978 85.6283 56.3173 85.3121C55.8616 85.1248 54.8666 85.8784 54.4518 85.6847C54.3438 86.3971 53.6277 86.4984 53.0511 86.6319C52.4118 86.1257 51.9387 85.4563 51.3308 84.9149C50.9626 84.4835 50.7071 85.5418 50.132 84.9276C49.7403 84.851 48.8284 84.1165 48.9575 84.9226C48.542 85.7037 47.6028 85.2505 46.9124 85.4157C46.2406 85.3627 45.7338 85.9109 45.0846 85.8853C44.6235 86.0125 43.9347 85.8169 43.7586 86.3292C43.428 86.7041 42.8925 86.3387 42.4592 86.4276C42.342 86.5083 42.371 87.2998 42.365 87.6996C42.341 88.0175 42.9093 89.0922 42.3215 88.7474C42.0421 88.2034 41.4393 88.4042 40.9481 88.3317C40.8272 88.0634 40.4673 87.4772 40.0816 87.1023C39.2909 86.7029 40.3591 86.1987 40.1766 85.8698C39.7663 85.3669 39.1228 85.757 38.8831 86.2247C38.2918 86.8744 38.5005 85.9274 38.8054 85.5868C38.8148 85.2159 38.4 84.6901 37.9078 84.7004C37.5569 84.5169 37.0932 84.5803 36.547 84.6553C35.7297 84.3339 36.2749 85.0177 35.8935 85.4002C35.5977 85.7289 35.4614 86.7338 35.0232 85.9754C34.7556 85.2045 34.2725 85.9195 33.8594 85.6086C33.3935 85.6201 32.7726 85.4529 32.3711 85.5514C31.9679 85.9327 31.9445 86.4318 31.9504 86.9569C31.7004 87.5032 31.7278 88.1946 31.3065 88.6413C30.9575 88.9259 30.1607 89.2909 30.3618 89.7811C29.7333 90.3096 29.7106 91.2324 29.2167 91.8372C28.9156 92.2625 28.9369 93.1358 29.5462 93.2385C29.4293 93.7475 29.9529 94.0288 30.1177 94.4409C30.0839 94.9961 30.0878 95.0917 29.8854 95.1728C29.8854 95.1728 30.0244 94.7853 29.9251 94.6084C29.8257 94.4314 29.5276 94.4159 29.4512 94.3967C29.3748 94.3774 28.8894 94.0656 28.7671 93.9503C28.6448 93.8349 28.5835 93.954 28.4574 94.0232C28.3313 94.0925 28.3159 94.0079 28.1745 93.9041C28.0331 93.8003 27.8345 93.8853 27.632 93.8814C27.4294 93.8776 27.3916 93.858 27.3151 93.7388C27.2387 93.6196 27.204 93.6733 26.99 93.7195C26.776 93.7656 26.5851 93.7156 26.501 93.7156C26.4169 93.7156 26.3217 93.6734 26.207 93.5542C26.0924 93.435 26.0999 93.5349 25.9852 93.6349C25.8706 93.7349 25.8282 93.5773 25.6563 93.4619C25.4843 93.3465 25.416 93.4543 25.2631 93.5158C25.1103 93.5773 24.7779 93.5816 24.625 93.5854C24.4722 93.5892 24.2732 93.5927 24.1853 93.5658C24.0974 93.5388 23.2794 93.5697 23.0959 93.5813C22.9125 93.5929 21.3842 93.5234 21.0899 93.5465C20.7957 93.5695 20.6238 93.658 20.3372 93.6849C20.0507 93.7119 19.6955 93.6656 19.3669 93.6694C19.0383 93.6733 18.8699 93.8544 18.7858 93.9044C18.7018 93.9544 18.0561 93.8887 17.8516 93.8093C17.6565 93.7842 17.2446 93.772 16.9947 93.9912C16.7683 94.2145 16.4813 93.9561 16.2227 93.9237C15.9561 93.8589 15.6882 93.7554 15.7701 93.4282C15.4518 92.9056 15.4579 92.2834 15.3025 91.7095C15.2823 91.3633 15.2506 90.9845 14.9846 90.7258C14.6065 90.3307 14.1622 89.9758 13.6789 89.7203C13.4234 89.4901 13.2266 89.7396 13.0191 89.9011C12.7997 90.0274 12.6246 90.2751 12.4193 90.3651C12.154 90.3975 11.8277 90.1312 11.9333 90.5708C11.5107 90.8785 11.2098 91.3125 10.8571 91.6929C10.4053 91.6401 9.93192 91.6911 9.51125 91.4881C9.60895 91.8793 9.76123 92.1783 10.0642 92.4135C10.2562 92.9225 9.52151 92.8354 9.57544 93.2449C9.13413 93.0582 8.60517 93.1816 8.13065 93.1578C7.7618 93.2323 7.27353 93.1876 7.25838 93.6902C7.46161 94.1823 6.8633 94.2445 6.96606 94.6988C6.59141 94.7934 6.29435 95.0623 5.95162 95.2264C5.63298 95.2362 5.09478 95.6596 5.14933 95.0915C4.82743 94.7371 4.48084 95.3384 4.14702 95.4411C4.09247 95.9196 3.75103 95.8002 3.45052 96.1186C3.0199 96.093 3.38545 95.273 2.87552 95.2112C2.3866 95.4377 2.46421 94.5427 2.05092 94.8154C1.66182 95.0126 1.26253 95.2151 0.906161 95.4898C0.638932 95.7458 0.0787552 95.8877 0 96.2173C0.187416 96.6889 0.507125 97.1078 0.581056 97.6291C0.984862 97.8719 0.74528 98.332 0.333646 98.3444C0.563479 98.6994 0.767312 99.0598 0.865661 99.471C0.867353 99.9563 0.645102 100.453 0.680241 100.958C0.559689 101.525 1.18661 100.813 1.37674 100.69C1.6847 100.502 2.07942 100.951 2.43884 100.526C2.9024 100.572 2.89793 100.988 2.90308 101.23C3.14854 101.502 3.61428 101.098 3.88142 101.552C4.23879 101.75 4.62838 102.158 4.87106 101.611C5.12699 101.04 5.38038 101.541 5.79651 101.575C6.49612 101.639 6.9598 102.184 7.53885 102.515C7.84826 102.89 8.24502 102.68 8.62768 102.565C9.12371 102.315 8.76686 103.147 8.7737 103.408C9.33988 104.051 10.172 104.37 10.7136 105.036C11.6364 105.219 12.5118 105.554 13.3819 105.906C14.0272 105.896 13.3704 106.615 13.661 106.733C14.1044 106.477 14.8544 106.39 15.2673 106.029C15.2889 106.483 15.1921 107.401 15.1427 107.853C14.999 108.247 14.6887 108.435 14.916 108.938C14.8624 109.19 14.7103 109.355 14.3776 109.478C15.0116 110.194 13.9961 110.307 13.718 110.691C12.8363 110.965 12.1866 111.141 11.6319 111.639C11.3501 111.881 10.6077 111.896 10.6064 112.333C10.6033 112.75 10.7683 113.404 10.489 113.796C10.1888 114.132 10.7872 114.419 10.8797 114.795C11.0904 114.697 11.7776 114.666 11.5704 114.207C11.4502 113.728 12.1699 113.85 12.4766 113.76C12.878 113.785 13.4875 113.554 13.6621 114.054C14.1713 114.464 14.9295 114.486 15.5191 114.215C16.4576 114.161 17.4699 113.776 18.3632 114.213C18.7151 114.306 19.1108 114.795 19.4055 114.37C19.929 114.146 20.2133 113.598 20.7309 113.365C21.0636 113.221 21.42 112.968 21.4894 112.607C21.4731 112.142 22.1835 112.162 22.4835 112.005L22.9631 112.607C23.2054 113.063 24.1912 113.312 24.0299 113.662C23.341 113.94 24.2666 115.09 23.2665 114.897C22.8546 115.096 22.3181 115.507 22.1884 115.976C22.4298 116.328 22.5874 117.483 23.072 117.093C22.8694 116.267 23.5237 117.168 23.7575 117.515C24.2734 117.539 24.9249 117.52 24.7906 118.366C24.4045 118.806 24.4593 119.611 25.0587 119.569C25.5906 120.316 24.1505 120.286 24.5867 120.976C24.6296 121.654 25.4694 121.146 25.675 121.841C26.2704 122.403 26.8138 121.636 27.1898 121.209C27.6093 121.602 26.8733 122.393 26.3451 122.299C25.2732 122.712 24.207 121.945 23.1522 122.116C22.7315 122.615 22.1494 122.899 21.93 123.564C21.913 124.13 21.8251 124.774 21.304 125.152C20.8505 125.547 20.7705 126.253 20.7467 126.733C19.9663 127.096 20.6195 127.677 21.177 127.907C21.8856 128.579 22.9795 128.209 23.6563 128.932C24.1775 129.187 24.4445 129.517 25.0022 129.242C25.5554 129.515 26.1713 129.265 26.647 129.6C27.0232 130.091 27.7907 129.984 28.3158 130.297C28.8467 130.509 28.9217 131.205 29.4688 131.466C30.2538 131.977 29.2967 132.472 29.6231 133.007C30.3467 132.726 30.545 133.696 31.3015 133.348C32.1664 133.08 32.1397 134.141 32.3474 134.7C32.3092 135.243 32.1789 135.777 31.89 136.248C31.6716 136.785 31.3338 137.378 31.6793 137.914C31.1041 137.87 30.6646 138.659 30.6593 139.203C29.8773 139.681 30.9643 139.732 31.0679 140.169C31.0534 140.604 31.5957 141.523 30.9571 141.768C30.3463 142.112 29.709 141.769 29.0729 141.837C28.4658 141.83 27.7752 141.657 27.8315 142.444C28.3126 142.758 27.8401 143.619 28.5332 143.685C29.4583 143.417 28.9735 144.54 28.9018 145.005C29.4921 145.47 28.3946 146.191 29.2154 146.584C29.1686 147.338 28.6824 148.016 28.6715 148.752C28.6321 149.915 28.6305 151.119 28.0271 152.153C28.2375 152.749 29.0225 152.637 28.6497 153.297C28.1329 153.744 29.175 154.133 29.3807 154.531C29.7984 155.036 29.2364 155.668 28.9128 156.088C29.1774 156.752 28.5068 157.416 28.6665 158C29.1996 157.877 29.4454 159.33 29.6303 158.555C30.1238 158.872 30.9697 157.638 30.6646 158.692C30.3892 159.421 31.1667 159.545 31.5418 159.911C32.2339 159.956 31.9365 161.144 32.4562 161.082C32.7453 161.915 33.5396 161.11 33.9542 161.276C34.3859 161.788 35.0954 161.402 35.5582 161.908C36.0099 162.486 36.3183 161.527 36.9066 161.51C37.1084 161.001 37.856 160.969 38.115 160.627C38.7531 160.634 39.3715 160.341 39.371 159.61C38.3226 158.904 39.985 159.216 39.7865 158.592C40.2402 158.442 40.7637 158.045 41.2616 157.773C41.3108 157.756 41.3598 157.739 41.409 157.723C41.6024 157.689 41.739 157.501 41.9465 157.544C42.268 157.565 42.5636 157.402 42.832 157.241C43.079 156.96 43.4073 156.771 43.7451 156.62C44.2515 156.286 44.7186 155.893 45.181 155.5C45.3452 155.502 45.5086 155.506 45.6502 155.601C45.8372 155.622 46.0446 155.694 46.2197 155.592C46.3583 155.509 46.4888 155.489 46.5988 155.627C46.968 155.766 47.3747 155.699 47.7601 155.752C47.8943 155.78 48.1021 155.741 48.0411 155.944C48.0213 156.117 48.1135 156.322 47.9896 156.466C47.8505 156.63 47.8106 156.835 47.7684 157.04C47.7481 157.231 47.6132 157.427 47.7138 157.61C47.7548 157.754 47.7933 157.9 47.9568 157.938C48.1933 158.271 48.3578 158.666 48.6035 158.998C48.8726 159.334 49.0826 159.723 49.4057 160.011C49.2785 160.097 49.1329 160.212 49.1363 160.382C49.1349 160.711 49.1931 161.043 49.1677 161.373C49.1906 161.505 49.184 161.719 49.3454 161.548C49.4109 161.347 49.6038 161.594 49.6479 161.386C49.7663 161.492 49.9073 161.458 50.0474 161.427C50.2548 161.361 50.4305 161.499 50.5767 161.629C50.6504 161.806 50.7242 161.982 50.7979 162.158C50.8298 162.225 50.8672 162.292 50.8131 162.359C50.8043 162.455 50.716 162.443 50.6433 162.453C50.5898 162.508 50.5118 162.55 50.5119 162.637C50.5119 162.722 50.468 162.765 50.3846 162.771C50.2728 162.775 50.3932 162.868 50.4097 162.921C50.3805 163.027 50.3513 163.131 50.3221 163.237C50.2554 163.367 50.1594 163.484 50.0813 163.609C49.9879 163.997 49.9122 164.393 49.8256 164.785C49.8189 164.985 49.837 165.189 49.8397 165.39C49.8639 165.519 49.7803 165.628 49.7421 165.746C49.7421 165.807 49.7279 165.894 49.7579 165.944C49.8242 165.98 49.8905 166.016 49.9064 166.097C49.9011 166.251 49.8683 166.409 49.8526 166.564C49.796 166.623 49.7017 166.656 49.6306 166.705C49.5866 166.776 49.5705 166.87 49.5372 166.95C49.2728 166.919 48.9996 166.883 48.763 166.752C48.5 166.444 48.0747 166.531 47.9045 166.901C47.6431 167.052 47.2444 167.329 46.9785 167.251C46.652 167.014 46.3394 167.688 46.4288 167.909C46.5086 168.203 46.5092 168.641 46.8201 168.859C47.1893 168.978 47.3759 169.332 47.6601 169.553C48.0158 169.648 48.0007 170.188 48.3552 170.364C48.7129 170.55 48.8611 170.91 49.1151 171.19C49.5355 171.486 49.1614 171.951 48.931 172.241C48.9937 172.532 49.5173 172.705 49.1454 173.053C49.4476 173.324 49.2188 173.491 49.5209 173.811C49.9443 173.946 49.9969 174.345 49.7796 174.683C49.5049 174.948 49.3681 175.342 48.9073 175.157C48.5396 175.063 48.6603 175.544 48.3092 175.794C47.8413 176.161 48.0334 176.905 47.5119 177.227C47.0603 177.44 47.226 177.88 47.2752 178.277C47.1181 178.537 46.7518 178.95 47.1664 179.21C47.3341 179.709 47.7996 179.414 48.0601 179.701C48.4112 180.17 47.5316 180.054 47.6177 180.463C47.858 180.759 47.2448 181.253 47.5055 181.474C47.9342 181.406 47.9097 181.781 48.3109 181.882C48.4803 182.114 48.7848 182.713 48.3797 182.747C48.1627 183.048 47.6491 183.015 47.4466 183.19C47.2708 183.631 47.8036 183.947 47.7717 184.152C47.382 184.336 47.6584 184.876 47.2953 185.125C47.1486 185.419 47.6116 185.972 47.1336 186.073C46.7856 186.245 46.2909 186.148 46.4961 186.707C46.3059 187.075 46.6704 187.491 46.4746 187.809C46.2358 188.114 46.1901 188.475 46.0216 188.815C45.7442 189.059 45.698 189.325 45.3998 189.437C45.233 189.732 45.4058 190.162 45.0686 190.421C45.3099 190.879 44.8845 191.015 44.784 191.344C44.4684 191.737 45.0044 191.893 45.3893 191.849C45.7004 192.143 46.0174 191.835 46.2594 191.649C46.7039 191.434 46.7799 191.878 46.906 192.172C47.3503 192.199 47.3611 192.595 47.6301 192.869C47.9068 193.296 48.2295 193.068 48.5968 193.109C49.0159 193.157 49.207 193.585 49.6212 193.588C49.8677 193.44 50.2173 193.384 50.4943 193.097C50.5818 192.742 50.9052 192.882 51.1448 192.498C51.5087 192.457 51.9561 192.021 52.2259 192.425C52.6976 192.21 52.2705 192.841 52.2623 193.053C52.1884 193.538 52.848 193.294 52.9866 193.675C53.1517 193.114 53.492 192.634 53.7638 192.123C54.1978 192.319 54.3739 192.504 53.9068 192.566C53.5667 192.926 54.0646 193.294 53.8996 193.644C53.5171 193.594 53.4371 194.285 53.7814 194.367C54.3446 194.311 54.2207 195.043 54.2297 195.41C54.4594 195.607 54.669 196.003 55.0135 196.072C55.1998 196.588 55.6463 196.02 55.9759 195.94C55.9719 196.052 55.9679 196.163 55.9638 196.275C55.958 196.359 55.9371 196.452 56.0428 196.475C56.1331 196.557 56.2561 196.53 56.3671 196.542C56.3891 196.669 56.4108 196.797 56.4327 196.925C55.9626 197.242 55.7979 197.549 55.8445 198.161C55.8204 198.255 55.9301 198.287 55.9798 198.347C55.8428 198.532 55.758 198.669 55.5232 198.771C55.5427 198.9 55.5621 199.029 55.5816 199.157C55.483 199.243 55.3847 199.329 55.286 199.416C55.0469 199.506 54.7726 199.602 54.5895 199.378C54.3562 198.994 53.8153 199.448 54.1049 199.84C54.1363 199.935 53.9166 200.346 53.8465 200.399C53.7761 200.479 53.4575 200.711 53.4175 200.809C53.3391 200.943 53.4693 201.189 53.3742 201.313C53.0514 201.539 53.2442 201.651 53.3891 201.859C53.4733 202.426 53.446 202.768 53.3673 203.199C53.4063 203.686 52.944 203.893 52.583 204.324C52.1467 204.751 52.5167 205.263 51.7964 205.29C51.2902 205.009 50.8293 205.229 51.0346 205.679C51.3065 206.056 50.9935 206.527 50.6739 206.748C50.0518 206.785 50.1338 207.397 50.3651 207.826C50.7795 208.415 49.9799 208.315 50.14 208.998C50.0172 209.424 49.9943 209.866 49.8667 210.307C50.1747 210.816 50.2107 211.116 49.6865 211.499C49.4821 212.112 48.7542 211.637 48.7649 212.317C48.938 212.576 49.6411 212.598 49.457 213.2C49.2994 213.71 49.5655 214.165 49.1561 214.523C48.6246 214.66 48.7486 215.411 48.2916 215.555C47.8883 215.766 47.4418 215.942 47.3573 216.399C46.9857 216.678 46.597 216.945 46.4726 217.466C46.6731 217.907 46.548 218.313 46.2128 218.663C45.9363 219.064 46.26 219.536 45.5274 219.48C45.3434 219.058 44.5038 219.318 44.3685 219.729C44.6013 220.224 43.8607 220.413 43.7241 220.648C43.6959 221.23 44.2088 221.097 44.2798 221.548C44.513 221.998 45.1355 222.124 45.1213 222.724C45.3402 223.154 45.8136 223.261 46.0109 223.715C46.0095 224.16 46.1347 224.6 45.9916 225.033C46.1391 225.683 46.4432 225.454 46.5255 225.023C46.8776 224.884 47.6526 225.302 47.0694 225.692C47.0662 226.372 47.5454 226.319 48.002 226.585C48.1646 226.907 48.0639 227.522 48.6401 227.532C49.2795 227.511 48.8539 228.331 49.0619 228.552C49.1185 228.887 49.3456 229.324 48.9669 229.685C48.5731 230.037 48.4976 230.429 48.2872 230.854C47.7234 230.912 47.6868 231.398 47.6863 231.894C47.7347 232.373 46.6259 232.161 46.9878 232.644C47.1991 233.287 46.1376 232.564 46.0395 232.95C46.3869 233.341 46.0218 234.158 45.4995 234.114C44.9752 233.838 44.6195 233.713 45.0207 234.44C45.2149 234.86 45.1267 235.379 45.6703 235.618C46.1274 235.833 46.2394 236.434 46.4732 236.86C46.52 237.336 46.1891 237.818 46.6859 238.192C46.8982 238.851 47.6086 239.105 47.8692 239.736C48.5382 239.846 48.1823 240.459 48.4252 240.874C48.8158 241.21 49.0814 241.67 49.4526 242.046C49.4792 242.118 49.5064 242.19 49.533 242.262C49.6886 242.599 49.7313 243.001 49.9835 243.282C50.1489 243.413 50.1644 243.681 50.0053 243.823C49.6231 244.277 49.4283 244.844 49.2707 245.408C49.0828 245.594 48.7849 245.64 48.5304 245.706C48.3991 245.866 48.2622 246.019 48.0557 246.076C47.9329 245.919 47.8597 245.715 47.6857 245.607C47.5069 245.512 47.3738 245.267 47.1567 245.299C46.8963 245.266 46.6866 245.441 46.5123 245.614C46.2996 245.758 46.3072 245.906 46.5085 246.058C46.6428 246.436 46.6175 246.876 46.8154 247.238C46.8765 247.53 47.2076 247.592 47.3438 247.836C47.4784 248.033 47.4661 248.311 47.4268 248.543C47.1644 248.569 46.8993 248.576 46.6429 248.643C46.4196 248.628 46.3163 248.814 46.1933 248.967C46.0141 249.248 46.0142 249.611 45.9921 249.939C45.7622 250.187 45.458 250.403 45.3378 250.729C45.307 250.964 45.1267 251.104 44.9659 251.256C44.8402 251.376 44.6779 251.575 44.5132 251.556C44.4367 251.369 44.3039 251.177 44.0848 251.238C43.8935 251.34 43.7579 251.464 43.8677 251.69C43.9885 251.825 44.2082 251.894 44.2016 252.128C44.261 252.322 44.005 252.46 43.9277 252.63C43.8137 252.703 43.8046 253.159 43.9817 252.962C44.1849 252.888 44.297 252.65 44.4928 252.594C44.733 252.52 44.802 252.819 44.8628 252.992C44.8906 253.173 44.6811 253.329 44.6173 253.5C44.5297 253.844 44.8053 254.132 45.0025 254.384C45.1288 254.61 44.9118 254.732 44.7661 254.544C44.696 254.39 44.6042 254.092 44.3923 254.239C44.1958 254.283 43.9471 254.331 43.7836 254.182C43.6344 254.009 43.4244 254.119 43.2348 254.134C43.0196 254.259 42.7561 254.365 42.6089 254.577C42.5455 254.738 42.1096 254.566 42.2207 254.784C42.2504 254.944 42.5053 255.259 42.1873 255.182C41.993 255.178 41.9576 255.436 41.719 255.384C41.7417 255.403 41.8563 255.497 41.8661 255.505C42.0314 255.637 44.0281 257.058 44.214 257.196C44.3999 257.335 45.5593 258.329 45.5593 258.329C45.5593 258.329 45.9242 258.672 46.0216 258.844C46.119 259.015 46.1291 259.099 46.1729 259.138C46.2167 259.177 46.526 259.243 46.6404 259.324C46.7549 259.405 48.0235 260.172 48.0356 260.197C48.0478 260.221 48.2644 260.486 48.3277 260.606C48.391 260.726 48.6366 260.974 48.717 261.067C48.7973 261.16 48.817 261.17 48.895 261.192C48.9729 261.214 49.0018 261.25 49.087 261.329C49.1722 261.407 49.7883 261.452 49.8127 261.479C49.837 261.506 50.475 261.758 50.5918 261.853C50.7087 261.949 51.8095 262.721 51.8314 262.755C51.8533 262.79 51.9822 263.098 51.9724 263.279C51.9627 263.461 52.0747 263.495 52.1964 263.547C52.3182 263.598 52.4009 263.762 52.4959 263.829C52.5909 263.895 52.8025 263.76 52.9632 263.701C53.1239 263.642 53.9008 263.763 54.1151 263.772C54.3294 263.782 54.7872 263.914 54.9722 264.052C55.1572 264.189 55.4249 264.184 55.5759 264.218C55.7268 264.253 56.3893 264.458 56.6035 264.561C56.8178 264.664 57.8497 264.939 57.9544 264.937C58.0591 264.934 58.4539 265.088 58.5781 265.13C58.7023 265.172 59.9096 265.336 60.0703 265.37C60.231 265.405 60.4478 265.412 60.5378 265.468C60.6279 265.524 60.8204 265.502 60.9349 265.527C61.0493 265.551 61.9035 265.694 62.0033 265.743C62.1031 265.792 62.7487 265.821 62.8144 265.828C62.8801 265.836 62.8754 265.929 62.8802 265.978C62.8851 266.027 63.1894 265.981 63.3087 265.961C63.428 265.942 63.8833 265.986 63.8906 265.976C63.8978 265.967 63.9607 265.542 64.1214 265.442C64.2821 265.341 64.4896 265.309 64.5066 265.295C64.5237 265.28 64.5453 265.067 64.5355 265.052C64.5258 265.037 64.4872 265.047 64.4385 265.042C64.3899 265.037 64.4457 265.001 64.3994 264.937C64.3532 264.874 64.3724 265.121 64.2945 265.101C64.2165 265.081 64.1897 264.793 64.2432 264.685C64.2968 264.577 64.2436 264.528 64.1608 264.425C64.078 264.322 64.2338 264.001 64.2898 263.908C64.3458 263.815 64.9275 263.261 65.132 263.121C65.3365 262.981 65.3783 263.05 65.4684 262.994C65.5585 262.938 66.2864 262.653 66.5421 262.55C66.7977 262.447 67.286 262.32 67.4031 262.311C67.5201 262.303 67.9248 262.219 68.004 262.153C68.0831 262.087 68.5652 262.023 68.6754 262.004C68.7856 261.985 68.8612 262.039 68.9559 262.058C69.0505 262.077 70.1174 261.943 70.2282 261.929C70.339 261.914 70.681 261.843 70.7346 261.822C70.7881 261.801 70.9086 262.124 70.9244 262.138C70.9402 262.153 71.1292 262.127 71.1949 262.111C71.2607 262.095 71.3627 262.048 71.3688 261.999C71.3749 261.95 71.3774 261.847 71.4286 261.782C71.4797 261.717 71.7815 261.656 71.8253 261.643C71.8691 261.631 72.0833 261.533 72.1928 261.428C72.3024 261.322 72.6022 261.381 72.7045 261.332C72.8067 261.283 73.1232 261.182 73.1963 261.158C73.2693 261.133 73.2984 261.109 73.4274 260.991C73.5565 260.874 73.6878 260.881 73.6878 260.881C73.6878 260.881 73.6565 260.773 73.6613 260.731C73.6662 260.69 73.9897 260.543 74.0603 260.479C74.1309 260.415 74.3135 260.313 74.4791 260.315C74.6446 260.317 74.6788 260.254 74.7689 260.158C74.859 260.062 74.9077 260.038 74.9662 260.026C75.0246 260.014 75.0954 259.761 75.11 259.678C75.1246 259.594 75.1584 259.501 75.1389 259.455C75.1194 259.408 74.9636 259.315 75.0342 259.146C75.1048 258.977 75.2485 258.788 75.3362 258.744C75.4238 258.7 75.6384 258.555 75.7114 258.423C75.7845 258.291 76.0203 258.109 76.2321 257.962C76.444 257.815 77.1552 257.671 77.294 257.614C77.4327 257.558 78.0512 257.389 78.1924 257.323C78.3336 257.256 79.2686 256.879 79.3879 256.842C79.5072 256.805 79.9453 256.615 80.067 256.546C80.1887 256.477 80.5272 256.039 80.7269 255.877C80.9265 255.715 81.1455 255.669 81.1845 255.649C81.2234 255.629 81.4643 255.438 81.6079 255.397C81.7516 255.355 82.0124 255.22 82.178 255.122C82.3435 255.024 83.2165 254.528 83.3054 254.488C83.3942 254.449 83.5184 254.434 83.5464 254.429C83.5744 254.425 83.4816 254.401 83.4305 254.366C83.3793 254.33 83.419 254.102 83.4707 254.029C83.5223 253.956 84.0147 253.717 84.1146 253.669C84.2144 253.62 84.1632 253.544 84.2562 253.447C84.3491 253.35 85.2268 253.006 85.2957 252.941C85.3645 252.875 85.8018 252.757 85.9878 252.667C86.1737 252.577 87.2014 252.187 87.2152 252.178C87.229 252.169 87.3133 252.144 87.3684 252.149C87.4234 252.154 87.5254 252.073 87.6717 252.038C87.818 252.003 88.3122 251.835 88.3853 251.794C88.4583 251.752 88.552 251.728 88.6239 251.695C88.6957 251.661 88.8344 251.554 88.8344 251.55C88.8344 251.545 88.7399 251.539 88.7046 251.554C88.6693 251.568 88.6811 251.503 88.6889 251.411C88.6966 251.32 88.5798 251.387 88.4765 251.352C88.3732 251.316 88.2809 250.924 88.2809 250.854C88.2809 250.785 88.3189 250.57 88.436 250.41C88.553 250.251 88.5132 250.23 88.5619 250.044C88.6106 249.858 88.6349 249.485 88.7421 249.338C88.8492 249.191 89.3605 248.402 89.5212 248.191C89.6819 247.98 89.9641 247.667 90.1053 247.48C90.2465 247.294 90.7481 246.858 90.8991 246.715C91.05 246.573 91.6149 245.855 91.6782 245.804C91.7415 245.752 91.8122 245.642 91.8195 245.576C91.8268 245.51 91.6784 245.441 91.6589 245.375C91.6394 245.309 91.6243 245.139 91.5865 244.997C91.5486 244.855 91.5144 244.792 91.4834 244.65C91.4524 244.508 91.511 244.006 91.5179 243.877C91.5247 243.749 91.707 242.959 91.8138 242.865C91.9205 242.772 91.9894 242.54 91.9791 242.411C91.9687 242.283 92.1203 241.59 92.1375 241.493C92.1547 241.396 92.2818 241.188 92.2268 241.052C92.1717 240.917 92.0514 240.633 91.9308 240.477C91.8103 240.321 91.6759 239.666 91.6655 239.538C91.6552 239.41 91.7 238.886 91.7137 238.748C91.7275 238.609 91.6795 238.207 91.6553 238.037C91.6312 237.868 91.8277 237.516 91.8449 237.447C91.8621 237.377 91.9121 237.022 91.8983 236.939C91.8846 236.855 91.9894 236.684 92.0342 236.417C92.0789 236.15 92.2617 235.937 92.3047 235.845C92.3478 235.753 92.807 235.53 92.807 235.497C92.807 235.464 92.921 235.301 92.9434 235.27C92.9657 235.239 93.1135 234.511 93.1514 234.443C93.1892 234.376 93.4101 233.91 93.4583 233.837C93.5065 233.764 93.7882 233.518 93.8812 233.44C93.9742 233.362 94.4809 233.254 94.5576 233.249C94.6343 233.244 94.7293 233.302 94.7378 233.309C94.7463 233.316 94.8012 233.179 94.8852 233.102C94.9692 233.025 95.0394 233.148 95.0833 233.196C95.1271 233.244 95.3207 233.239 95.4522 233.278C95.5836 233.317 95.832 233.481 95.9172 233.543C96.0025 233.604 96.0608 233.541 96.1217 233.457C96.1825 233.374 96.2558 233.43 96.341 233.388C96.4262 233.347 96.4404 233.269 96.4404 233.269C96.4404 233.269 96.3654 233.345 96.2875 233.342C96.2096 233.34 96.0489 233.418 95.971 233.479C95.8931 233.54 95.8784 233.437 95.8492 233.418C95.82 233.398 95.871 233.406 95.9172 233.401C95.9635 233.396 96.0339 233.327 96.0217 233.229C96.0095 233.131 95.8148 233.092 95.7247 233.055C95.6346 233.018 95.5692 233.2 95.4888 233.187C95.4085 233.175 95.2183 233.163 95.1599 233.131C95.1014 233.099 95.3282 232.955 95.3161 232.916C95.3039 232.876 95.2182 232.807 95.172 232.773C95.1257 232.739 95.2088 232.702 95.2477 232.673C95.2867 232.643 95.7102 232.891 95.8101 232.952C95.9099 233.013 96.2096 232.974 96.2704 233.001C96.3313 233.028 96.4308 233.114 96.4308 233.114C96.4308 233.114 96.4115 233.013 96.3385 232.942C96.2655 232.871 95.8224 232.876 95.7299 232.81C95.6374 232.744 95.4475 232.663 95.4097 232.638C95.372 232.614 95.3705 232.566 95.3425 232.472C95.3145 232.377 95.2173 232.266 95.1783 232.202C95.1394 232.138 95.154 231.873 95.1577 231.82C95.1613 231.767 95.1685 231.544 95.132 231.491C95.0955 231.439 95.1006 231.374 95.0981 231.371C95.0957 231.37 94.5953 231.337 94.5953 231.337C94.5953 231.337 94.5978 231.489 94.5953 231.532C94.5929 231.575 94.6499 231.766 94.6353 231.838C94.6207 231.911 94.5083 231.957 94.4653 231.98C94.4222 232.003 94.3257 232.026 94.2818 232.031C94.2379 232.036 94.2343 232.37 94.2102 232.41C94.1861 232.45 94.114 232.385 94.0107 232.322C93.9074 232.26 93.8262 232.289 93.747 232.293C93.6678 232.296 93.6683 232.215 93.6321 232.175C93.596 232.135 93.3649 232.135 93.3442 232.13C93.3236 232.125 93.3582 232.291 93.2084 232.27C93.0586 232.249 93.1755 231.971 93.1635 231.908C93.1514 231.846 93.2203 231.792 93.2461 231.816C93.272 231.84 93.2944 231.948 93.3065 231.981C93.3185 232.013 93.3445 231.988 93.3514 231.908C93.3583 231.828 93.2856 231.719 93.277 231.66C93.2684 231.601 93.2842 231.499 93.3186 231.476C93.353 231.454 93.3598 231.622 93.377 231.674C93.3942 231.726 93.4426 231.688 93.4701 231.624C93.4977 231.56 93.3979 231.447 93.3789 231.392C93.36 231.336 93.3546 231.171 93.3288 231.104C93.3033 231.036 93.3617 230.955 93.3307 230.911C93.2997 230.868 93.2496 230.958 93.1963 230.929C93.1429 230.899 93.2446 230.636 93.2963 230.594C93.3479 230.553 93.4205 230.676 93.4704 230.659C93.5203 230.641 93.4703 230.599 93.4393 230.554C93.4083 230.509 93.4168 230.39 93.4495 230.35C93.4822 230.31 93.4978 230.289 93.4547 230.229C93.4117 230.168 93.4823 229.783 93.4944 229.733C93.5064 229.683 93.6219 229.57 93.6443 229.544C93.6666 229.518 93.6409 229.49 93.5737 229.461C93.5066 229.431 93.4671 229.045 93.5032 228.912C93.5394 228.779 93.6148 228.732 93.6355 228.648C93.6561 228.565 93.5083 228.409 93.5117 228.271C93.5152 228.132 93.622 227.931 93.6426 227.851C93.6633 227.771 93.6215 227.335 93.6388 227.172C93.656 227.009 93.8115 226.548 93.8873 226.434C93.963 226.319 94.0074 226.298 94.0694 226.298C94.1314 226.298 94.1622 226.316 94.2036 226.191C94.2449 226.066 94.1932 225.644 94.2242 225.484C94.2552 225.325 94.6926 224.444 94.7339 224.347C94.7752 224.25 95.1026 223.755 95.2403 223.609C95.3781 223.464 95.4398 223.221 95.5362 223.082C95.6326 222.944 96.4144 222.299 96.5005 222.24C96.5866 222.181 97.1135 221.748 97.2237 221.689C97.3339 221.63 98.6352 220.684 98.8212 220.587C99.0071 220.49 99.9267 219.911 100.068 219.79C100.209 219.668 102.055 218.327 102.165 218.233C102.275 218.14 102.698 217.81 102.85 217.654C103.001 217.498 103.277 217.228 103.408 217.052C103.538 216.875 104.108 216.52 104.215 216.424C104.322 216.329 105.072 215.831 105.355 215.625C105.637 215.419 106.299 215.314 106.358 215.255C106.416 215.196 106.552 215.216 106.664 215.17C106.776 215.123 107.217 215.001 107.351 214.942C107.485 214.883 108.182 214.861 108.25 214.836C108.318 214.812 108.591 214.807 108.681 214.836C108.771 214.866 109.007 214.729 109.09 214.758C109.173 214.787 109.499 214.65 109.596 214.613C109.693 214.576 110.516 214.449 110.536 214.452C110.555 214.454 110.925 214.452 111.05 214.41C111.174 214.368 111.819 214.349 111.887 214.349C111.955 214.349 112.338 214.386 112.537 214.388C112.737 214.39 112.98 214.473 113.028 214.535C113.075 214.596 113.287 214.666 113.439 214.65C113.591 214.634 113.888 214.284 113.942 214.228C113.995 214.173 114.402 213.976 114.647 213.894C114.891 213.812 114.978 213.739 115.021 213.742C115.063 213.746 115.153 213.708 115.233 213.67C115.312 213.632 115.459 213.599 115.566 213.605C115.673 213.611 116.002 213.521 116.128 213.493C116.255 213.465 116.625 213.455 116.75 213.434C116.874 213.414 117.273 213.392 117.277 213.388C117.282 213.384 117.298 213.304 117.273 213.275C117.247 213.246 117.023 213.34 116.914 213.29C116.804 213.24 116.885 213.053 116.892 212.989C116.899 212.924 116.832 212.859 116.782 212.797C116.732 212.734 116.618 212.7 116.605 212.66C116.593 212.619 116.583 212.384 116.63 212.249C116.677 212.115 116.936 211.934 117.01 211.894C117.084 211.854 117.269 211.73 117.328 211.714C117.386 211.698 117.387 211.642 117.449 211.597C117.511 211.551 117.721 211.519 117.853 211.524C117.986 211.529 118.429 211.473 118.517 211.489C118.605 211.504 118.845 211.54 118.97 211.555C119.094 211.57 119.44 211.688 119.458 211.71C119.476 211.732 119.649 211.713 119.757 211.723C119.866 211.732 120.103 211.752 120.179 211.747C120.254 211.742 120.222 211.709 120.219 211.627C120.215 211.545 120.293 211.432 120.332 211.359C120.371 211.285 120.345 211.236 120.347 211.084C120.348 210.932 120.494 210.97 120.523 210.968C120.552 210.965 120.594 210.871 120.595 210.812C120.596 210.753 120.95 210.74 121.012 210.718C121.074 210.696 121.211 210.705 121.317 210.667C121.423 210.629 121.745 210.555 121.854 210.537C121.962 210.518 122.057 210.49 122.111 210.425C122.164 210.36 122.411 210.301 122.492 210.264C122.572 210.228 122.687 210.246 122.839 210.207C122.991 210.168 123.063 210.039 123.131 210.012C123.199 209.985 123.321 210.014 123.355 210.018C123.389 210.023 123.416 209.959 123.523 209.878C123.63 209.797 123.815 209.876 123.847 209.859C123.878 209.842 124.209 209.582 124.251 209.545C124.292 209.508 124.704 209.467 124.796 209.486C124.889 209.506 125.171 209.401 125.281 209.3C125.39 209.2 125.841 209.099 125.86 209.096C125.88 209.094 126.109 208.994 126.213 208.925C126.318 208.857 126.532 208.888 126.666 208.922C126.8 208.957 126.905 208.761 126.958 208.697C127.012 208.633 127.365 208.663 127.452 208.665C127.54 208.668 127.647 208.56 127.786 208.523C127.925 208.487 128.266 208.604 128.305 208.611C128.344 208.619 128.687 208.658 128.777 208.719C128.867 208.781 129.12 208.824 129.21 208.837C129.3 208.849 129.442 208.781 129.532 208.71C129.622 208.639 129.715 208.521 129.724 208.462C129.734 208.403 130.014 208.19 130.111 208.121C130.209 208.053 130.33 208.048 130.413 208.021C130.496 207.994 130.557 207.952 130.649 207.937C130.742 207.923 130.919 207.874 131.075 207.866C131.231 207.859 131.46 207.727 131.594 207.739C131.728 207.751 132.592 207.704 132.607 207.695C132.622 207.685 133.053 207.71 133.162 207.724C133.272 207.739 133.773 207.704 133.963 207.768C134.153 207.832 134.653 207.882 134.665 207.878C134.678 207.875 134.826 207.902 134.916 207.908C135.006 207.914 135.053 207.938 135.109 207.973C135.165 208.007 135.456 208.049 135.525 208.053C135.595 208.056 135.79 208.103 135.903 208.097C136.016 208.091 136.114 208.14 136.208 208.172C136.301 208.204 136.547 208.202 136.657 208.189C136.767 208.175 136.795 208.231 136.834 208.274C136.873 208.317 137.251 208.343 137.279 208.349C137.307 208.355 138.12 208.36 138.162 208.36C138.203 208.36 138.309 208.332 138.407 208.318C138.504 208.305 138.774 208.199 138.844 208.199C138.913 208.199 139.17 208.082 139.268 208.056C139.367 208.031 139.442 207.962 139.517 207.92C139.591 207.879 139.913 207.835 140.017 207.806C140.12 207.777 140.504 207.761 140.587 207.745C140.669 207.729 140.757 207.58 140.853 207.555C140.949 207.531 141.246 207.531 141.335 207.52C141.425 207.51 142.034 207.368 142.248 207.361C142.461 207.354 142.833 207.381 142.933 207.357C143.033 207.333 143.077 207.274 143.07 207.25C143.063 207.226 142.736 207.267 142.613 207.236C142.489 207.205 142.403 207.16 142.324 207.139C142.244 207.118 142.186 207.187 142.125 207.194C142.065 207.201 141.692 207.205 141.587 207.181C141.481 207.157 141.194 207.04 141.154 207.007C141.115 206.974 141.096 206.952 141.074 206.933C141.051 206.914 140.927 206.907 140.827 206.85C140.727 206.793 140.639 206.773 140.562 206.773C140.484 206.773 140.445 206.905 140.397 206.941C140.348 206.978 140.173 207.02 140.099 207.058C140.025 207.096 140.011 207.189 139.965 207.219C139.918 207.248 139.767 207.226 139.669 207.215C139.571 207.205 139.567 207.259 139.534 207.286C139.502 207.314 139.379 207.278 139.319 207.285C139.259 207.292 139.297 207.321 139.293 207.356C139.29 207.391 139.236 207.371 139.138 207.342C139.04 207.312 139.071 207.232 139.02 207.187C138.968 207.142 138.921 207.186 138.816 207.167C138.711 207.148 138.451 207.058 138.376 207.08C138.3 207.103 138.183 207.056 138.124 207.046C138.066 207.035 138.124 206.982 138.121 206.935C138.118 206.888 137.99 206.91 137.908 206.905C137.825 206.9 137.82 206.826 137.773 206.781C137.727 206.735 137.66 206.773 137.563 206.747C137.467 206.721 137.538 206.671 137.538 206.671C137.538 206.671 137.777 206.657 137.806 206.702C137.836 206.747 137.885 206.778 137.954 206.804C138.023 206.83 138.279 206.872 138.309 206.895C138.338 206.917 138.484 206.891 138.51 206.891C138.536 206.891 138.851 207.011 138.918 207.042C138.985 207.073 139.366 207.079 139.4 207.106C139.435 207.134 139.64 207.173 139.69 207.127C139.74 207.08 139.896 207.077 139.908 207.068C139.92 207.059 139.848 206.997 139.776 206.973C139.703 206.948 139.553 206.922 139.471 206.966C139.388 207.009 139.235 206.997 139.138 207.018C139.042 207.038 138.175 206.747 137.94 206.678C137.706 206.609 136.831 206.352 136.632 206.262C136.432 206.172 135.22 205.333 134.883 205.084C134.545 204.834 133.189 203.663 132.982 203.469C132.775 203.275 132.114 202.581 131.935 202.415C131.756 202.249 130.673 200.935 130.625 200.873C130.577 200.81 130.442 200.644 130.336 200.505C130.229 200.367 130.005 200.032 129.938 199.93C129.871 199.828 129.528 199.138 129.484 199.098C129.439 199.058 129.299 198.748 129.249 198.687C129.199 198.627 129.026 198.216 129.002 198.143C128.978 198.07 128.872 197.273 128.872 197.273C128.872 197.273 129.053 197.045 129.106 197.039C129.16 197.034 129.497 197.124 129.616 197.11C129.735 197.097 129.691 196.918 129.689 196.766C129.687 196.613 129.726 196.192 129.723 196.123C129.719 196.054 129.811 195.92 129.85 195.839C129.89 195.757 129.943 195.637 129.988 195.551C130.033 195.464 130.022 195.157 130.009 195.114C129.995 195.071 129.883 194.937 129.871 194.825C129.859 194.712 129.964 194.201 129.985 194.1C130.005 194 130.065 193.707 130.052 193.643C130.038 193.579 130.098 193.332 130.124 193.237C130.15 193.142 130.265 192.931 130.323 192.823C130.382 192.715 130.279 192.544 130.299 192.481C130.318 192.417 130.542 191.975 130.542 191.975C130.602 191.855 130.582 191.587 130.629 191.433C130.675 191.279 131.533 190.636 131.666 190.489C131.799 190.342 131.912 190.175 131.979 190C132.045 189.826 132.265 189.438 132.338 189.237C132.411 189.036 132.424 188.715 132.444 188.487C132.464 188.26 132.843 187.516 133.036 187.322C133.229 187.128 133.329 186.941 133.355 186.787C133.382 186.633 133.694 186.338 133.881 186.217C134.067 186.097 134.118 185.992 134.165 185.785C134.211 185.577 134.48 185.595 134.633 185.387C134.786 185.18 134.739 184.945 134.978 184.684C135.218 184.423 135.677 183.861 135.77 183.767C135.863 183.673 136.508 183.472 136.568 183.432C136.628 183.392 136.668 183.044 136.814 182.85C136.961 182.655 137.24 182.261 137.493 182.14C137.745 182.02 137.586 182.012 137.613 181.825C137.639 181.637 137.912 181.015 138.105 180.821C138.298 180.627 138.916 180.352 138.909 180.252C138.903 180.152 139.241 179.788 139.241 179.788C139.284 179.736 139.417 179.655 139.467 179.605C139.516 179.556 139.66 179.371 139.723 179.284C139.787 179.196 139.794 178.912 139.78 178.867C139.766 178.822 139.564 178.716 139.538 178.697C139.512 178.678 139.495 178.412 139.547 178.313C139.599 178.214 139.747 178.116 139.766 177.967C139.785 177.818 139.879 177.638 139.902 177.575C139.926 177.511 140.114 177.35 140.191 177.326C140.269 177.302 140.486 177.066 140.518 176.955C140.551 176.843 140.843 176.658 140.965 176.583C141.088 176.507 141.099 176.31 141.137 176.206C141.174 176.102 141.186 176.003 141.142 175.92C141.097 175.837 141.273 175.572 141.351 175.484C141.428 175.397 141.593 175.376 141.711 175.295C141.828 175.215 141.913 175.096 142.012 175.006C142.11 174.916 142.127 174.892 142.148 174.762C142.17 174.632 142.266 174.606 142.411 174.5C142.557 174.393 142.595 174.301 142.696 174.199C142.797 174.097 143.354 173.747 143.409 173.669C143.463 173.591 143.538 173.307 143.564 173.254C143.59 173.202 143.705 173.015 143.874 172.918C144.043 172.821 144.147 172.617 144.227 172.478C144.307 172.338 144.601 172.099 144.686 171.993C144.771 171.886 145.026 171.593 145.083 171.517C145.139 171.441 145.382 171.337 145.469 171.11C145.556 170.882 146.033 170.686 146.136 170.634C146.24 170.582 146.638 170.445 146.652 170.414C146.666 170.383 146.541 170.355 146.466 170.296C146.391 170.236 146.12 170.03 145.995 169.824C145.871 169.618 145.989 169.611 146.08 169.443C146.172 169.275 146.071 169.169 145.93 169.001C145.788 168.833 145.657 168.763 145.491 168.712C145.325 168.662 145.285 168.756 145.178 168.622C145.072 168.488 145.069 168.331 145.002 168.234C144.936 168.137 144.773 167.581 144.7 167.457C144.627 167.333 144.839 167.287 144.862 167.267C144.886 167.247 144.823 166.942 144.79 166.821C144.756 166.701 144.896 166.684 144.939 166.651C144.983 166.617 144.956 166.302 145.032 166.225C145.109 166.148 145.282 166.078 145.278 166.024C145.275 165.971 145.169 166.038 145.065 166.015C144.962 165.991 144.829 165.787 144.816 165.643C144.803 165.499 144.896 165.572 144.899 165.418C144.903 165.264 144.886 165.02 144.892 164.983C144.899 164.946 145.292 164.866 145.408 164.813C145.524 164.759 145.398 164.481 145.425 164.34C145.451 164.2 145.321 164.116 145.291 164.029C145.261 163.942 145.452 163.872 145.482 163.839C145.511 163.805 145.398 163.614 145.448 163.497C145.498 163.38 145.81 163.183 145.87 163.166C145.93 163.149 146.223 162.948 146.426 162.797C146.629 162.646 146.679 162.416 146.808 162.285C146.938 162.155 147.334 161.934 147.327 161.92C147.321 161.907 147.407 161.625 147.254 161.545C147.101 161.465 146.748 161.251 146.689 161.087C146.629 160.923 147.171 160.394 147.307 160.263C147.444 160.133 147.54 160.046 147.653 159.925C147.766 159.805 148.358 159.356 148.412 159.336C148.465 159.316 148.571 159.406 148.691 159.333C148.81 159.259 148.987 158.928 149.1 158.817C149.213 158.707 149.446 158.669 149.649 158.516C149.852 158.362 149.961 158.352 150.204 158.295C150.447 158.238 150.623 158.338 150.783 158.328C150.943 158.318 151.175 158.11 151.394 158.047C151.614 157.983 151.611 158.023 151.697 157.93C151.784 157.836 151.814 157.652 151.907 157.562C152 157.471 151.996 157.261 152.063 157.113C152.129 156.966 152.465 156.862 152.555 156.812C152.645 156.762 153.862 156.835 153.995 156.812C154.128 156.788 154.541 156.842 154.657 156.832C154.774 156.822 155.076 156.939 155.223 156.979C155.369 157.019 155.715 157.022 155.848 156.999C155.981 156.975 156.903 157.123 156.987 157.13C157.072 157.137 157.361 157.153 157.472 157.158C157.582 157.163 157.954 157.184 158.041 157.179C158.128 157.175 158.311 157.239 158.436 157.239C158.56 157.239 158.669 157.177 158.701 157.092C158.734 157.007 158.756 156.976 158.822 156.921C158.888 156.867 158.878 156.806 158.869 156.787C158.859 156.768 158.582 156.784 158.509 156.843C158.436 156.902 158.309 156.955 158.095 156.896C157.881 156.836 157.726 156.843 157.759 156.787C157.792 156.73 157.881 156.678 157.999 156.659C158.116 156.64 158.146 156.576 158.219 156.476C158.292 156.377 158.175 156.273 158.114 156.223C158.053 156.173 158.039 156.055 158.104 156.01C158.17 155.965 158.217 155.956 158.238 155.87C158.26 155.785 158.372 155.851 158.45 155.839C158.528 155.828 158.532 155.956 158.523 156.046C158.513 156.136 158.502 156.093 158.443 156.123C158.384 156.154 158.532 156.259 158.626 156.282C158.72 156.306 158.899 156.249 158.944 156.195C158.989 156.14 159.158 156.197 159.259 156.185C159.36 156.173 159.337 156.304 159.297 156.375C159.257 156.446 159.122 156.341 159.057 156.327C158.991 156.313 159.019 156.462 158.984 156.561C158.948 156.661 159.026 156.699 159.13 156.734C159.233 156.77 159.374 156.585 159.452 156.556C159.529 156.528 159.69 156.597 159.802 156.571C159.915 156.545 160.03 156.46 159.934 156.365C159.837 156.27 159.795 156.135 159.697 156.034C159.598 155.932 159.598 155.932 159.579 155.875C159.56 155.818 159.767 155.78 159.812 155.802C159.856 155.823 159.99 155.828 160.009 155.816C160.028 155.804 159.99 155.688 160.026 155.64C160.061 155.593 160.028 155.489 160.017 155.442C160.005 155.394 160.127 155.347 160.289 155.376C160.451 155.404 160.832 155.544 160.936 155.544C161.039 155.544 161.03 155.541 161.079 155.586C161.129 155.631 161.279 155.615 161.347 155.626C161.415 155.638 161.822 155.769 161.897 155.776C161.973 155.783 162.102 155.624 162.102 155.624C162.102 155.624 162.161 155.842 162.196 155.901C162.232 155.96 162.18 156.171 162.034 156.235C161.888 156.299 161.78 156.244 161.71 156.237C161.639 156.23 161.47 156.117 161.39 156.133C161.31 156.15 161.039 156.091 160.962 156.072C160.884 156.053 160.705 156.107 160.578 156.19C160.451 156.273 160.472 156.384 160.491 156.441C160.51 156.498 160.496 156.649 160.416 156.732C160.336 156.815 160.32 156.872 160.263 156.921C160.207 156.971 160.049 156.921 159.944 156.964C159.838 157.007 159.729 157.087 159.638 157.021C159.546 156.955 159.365 156.798 159.292 156.831C159.219 156.864 159.191 157 159.113 157.09C159.036 157.18 159.024 157.25 159.059 157.295C159.094 157.34 159.56 157.452 159.631 157.454C159.701 157.457 159.979 157.454 160.08 157.492C160.181 157.53 160.479 157.558 160.597 157.599C160.715 157.639 161.049 157.655 161.197 157.684C161.345 157.712 162.001 157.819 162.01 157.819C162.02 157.819 162.269 157.873 162.427 157.892C162.585 157.911 162.864 157.925 162.991 157.937C163.118 157.949 163.436 158.041 163.553 158.077C163.671 158.112 163.718 158.048 163.868 158.117C164.019 158.186 164.163 158.157 164.344 158.207C164.525 158.257 164.583 158.261 164.68 158.247C164.776 158.233 165.183 158.328 165.282 158.356C165.38 158.385 165.514 158.398 165.616 158.398C165.717 158.398 166.133 158.493 166.222 158.54C166.312 158.588 166.422 158.534 166.389 158.474C166.356 158.415 166.225 158.349 166.138 158.268C166.051 158.188 165.961 158.23 165.844 158.235C165.726 158.24 165.524 158.077 165.423 158.065C165.322 158.053 164.884 158.008 164.743 157.982C164.602 157.956 164.548 157.951 164.477 157.897C164.407 157.842 164.252 157.916 164.141 157.899C164.031 157.882 164.09 157.833 164.021 157.838C163.953 157.843 163.815 157.819 163.735 157.752C163.655 157.686 163.598 157.795 163.476 157.755C163.353 157.714 163.013 157.693 162.857 157.61C162.702 157.527 162.461 157.575 162.392 157.58C162.322 157.585 162.252 157.567 162.203 157.527C162.155 157.486 162.192 157.449 162.153 157.433C162.114 157.416 162.117 157.468 162.127 157.523C162.138 157.577 161.944 157.57 161.838 157.514C161.732 157.459 161.791 157.432 161.744 157.418C161.698 157.405 161.455 157.405 161.329 157.348C161.202 157.291 160.933 157.327 160.607 157.227C160.281 157.126 160.398 157.147 160.315 157.003C160.232 156.859 160.444 156.862 160.514 156.765C160.584 156.668 160.604 156.484 160.66 156.444C160.717 156.404 160.917 156.598 161.1 156.658C161.283 156.718 161.402 156.373 161.518 156.467C161.635 156.561 161.951 156.534 162.067 156.501C162.183 156.467 162.26 156.139 162.337 156.009C162.413 155.878 162.769 155.798 162.838 155.681C162.908 155.563 163.201 155.621 163.404 155.587C163.607 155.554 163.577 155.612 163.668 155.567C163.76 155.523 163.847 155.454 163.843 155.393C163.838 155.331 163.499 155.191 163.356 155.123C163.212 155.054 162.989 154.919 162.916 154.82C162.843 154.72 162.897 154.623 162.887 154.546C162.877 154.469 162.85 153.957 162.879 153.91C162.907 153.863 163.414 153.898 163.542 153.942C163.67 153.985 164.317 153.925 164.332 153.906C164.346 153.887 164.365 154.114 164.289 154.242C164.214 154.37 164.2 154.734 164.155 154.803C164.111 154.871 164.064 154.98 164.155 155.092C164.247 155.203 164.359 155.413 164.478 155.506C164.598 155.6 164.611 155.366 164.758 155.312C164.904 155.259 165.3 155.627 165.273 155.684C165.246 155.741 165.097 155.831 165.064 155.965C165.031 156.099 165.327 156.016 165.35 156.133C165.373 156.25 165.483 156.404 165.609 156.518C165.736 156.632 166.058 156.748 166.371 156.611C166.683 156.474 166.7 156.45 166.843 156.414C166.986 156.377 167.345 156.43 167.522 156.47C167.698 156.511 167.944 156.454 168 156.407C168.057 156.36 168.227 156.491 168.296 156.514C168.366 156.538 168.735 156.671 168.838 156.728C168.942 156.785 169.128 156.762 169.267 156.852C169.407 156.943 169.983 157.21 170.142 157.281C170.302 157.351 170.501 157.462 170.661 157.622C170.821 157.783 171.176 157.783 171.313 157.914C171.449 158.044 171.841 158.238 172.064 158.349C172.287 158.459 172.344 158.56 172.367 158.754C172.384 158.891 172.16 158.916 172.038 158.92C172.169 158.917 172.624 158.906 172.773 158.948C172.939 158.995 173.737 158.914 173.977 158.874C174.216 158.834 175.286 158.55 175.464 158.427C175.643 158.304 176.137 158.02 176.316 157.797C176.495 157.575 176.448 157.225 176.443 157.102C176.438 156.979 176.33 156.633 176.292 156.481C176.255 156.33 176.165 155.563 176.081 155.35C175.996 155.137 175.972 154.402 175.892 154.08C175.813 153.759 175.64 152.005 175.606 151.891C175.573 151.777 175.546 150.78 175.52 150.458C175.493 150.137 175.46 148.718 175.44 148.63C175.42 148.543 175.394 148.095 175.407 147.941C175.42 147.787 175.414 146.669 175.38 146.508C175.347 146.348 175.261 145.712 175.261 145.517C175.261 145.323 175.234 144.761 175.234 144.761C175.234 144.761 175.131 142.973 175.131 142.926C175.131 142.879 175.094 142.601 175.074 142.444C175.054 142.287 175.078 141.316 175.061 141.266C175.045 141.216 175.078 140.827 175.051 140.606C175.024 140.385 174.994 139.873 174.964 139.762C174.935 139.652 174.991 139.434 175.007 139.357C175.024 139.28 174.995 138.219 174.991 138.102C174.988 137.985 174.891 136.669 174.894 136.535C174.898 136.402 174.908 136.298 174.871 136.16C174.835 136.023 174.822 135.136 174.858 135.026C174.895 134.915 174.878 134.704 174.885 134.574C174.891 134.443 174.885 133.402 174.878 133.315C174.873 133.248 174.899 132.904 174.889 132.659L174.847 132.659L174.551 132.716C174.194 132.764 173.832 132.782 173.472 132.786C173.328 132.819 173.209 132.729 173.083 132.674C172.962 132.637 172.903 132.532 173.024 132.449C173.045 132.313 173.016 132.162 173.018 132.02C173.016 131.93 172.993 131.78 172.938 131.737C172.823 131.765 172.729 131.822 172.68 131.934C172.621 131.982 172.582 131.76 172.531 131.704C172.45 131.644 172.328 131.63 172.232 131.587C172.132 131.506 172.022 131.412 172.002 131.275C171.95 131.165 171.938 131.057 172.002 130.95C172.068 131.02 172.105 131.163 172.188 131.189C172.369 131.185 172.479 131.023 172.648 130.987C172.805 130.988 172.762 130.853 172.725 130.751C172.636 130.674 172.592 130.51 172.457 130.52C172.304 130.521 172.165 130.475 172.033 130.398C171.9 130.356 171.832 130.303 171.978 130.213C172.294 130.213 172.611 130.253 172.923 130.189C172.853 130.075 172.751 129.996 172.632 129.937C172.541 129.849 172.428 129.864 172.314 129.885C172.191 129.877 172.044 129.965 171.943 129.869C171.852 129.79 171.718 129.717 171.6 129.767C171.5 129.821 171.398 129.897 171.328 129.762C171.248 129.65 171.165 129.613 171.075 129.737C171.003 129.77 170.817 129.804 170.785 129.755C170.776 129.643 170.874 129.552 170.971 129.521C171.082 129.505 171.202 129.499 171.226 129.365C171.207 129.233 171.124 129.098 171.08 128.965C170.941 128.943 170.802 128.92 170.664 128.898C170.523 128.841 170.472 128.898 170.488 129.043C170.47 129.156 170.503 129.295 170.379 129.354C170.306 129.469 170.178 129.398 170.07 129.391C170.049 129.325 170.149 129.191 170.159 129.104C170.064 129.032 169.895 129.014 169.902 128.865C169.889 128.729 169.86 128.64 169.751 128.781C169.709 128.882 169.799 129.025 169.734 129.127C169.677 129.202 169.649 129.417 169.548 129.27C169.569 129.088 169.597 128.902 169.571 128.723C169.691 128.66 169.745 128.587 169.624 128.486L169.008 128.561C168.851 128.613 168.829 128.55 168.899 128.413C168.977 128.285 168.702 128.326 168.795 128.173C168.809 128.034 168.637 128.068 168.598 128.176C168.456 128.256 168.518 128.05 168.547 127.969C168.534 127.883 168.344 127.909 168.259 127.869C168.167 127.828 168.02 127.863 167.967 127.765C167.916 127.718 167.96 127.699 167.995 127.662C168.044 127.629 168.06 127.58 168.054 127.522C167.994 127.525 167.935 127.528 167.875 127.53C167.837 127.519 167.737 127.568 167.757 127.499C167.74 127.422 167.796 127.423 167.856 127.427C167.904 127.422 167.993 127.445 167.941 127.371C167.9 127.304 167.948 127.232 167.958 127.161C167.993 127.133 168.057 127.133 168.102 127.114C168.165 127.109 168.209 127.07 168.251 127.026C168.318 126.945 168.427 126.931 168.518 126.888C168.547 126.85 168.552 126.788 168.572 126.742C168.552 126.654 168.506 126.567 168.476 126.479L168.308 126.584C168.282 126.645 168.282 126.724 168.265 126.792C168.208 126.776 168.151 126.761 168.093 126.745C167.995 126.704 167.889 126.734 167.787 126.737C167.733 126.743 167.742 126.65 167.716 126.613C167.693 126.512 167.703 126.405 167.693 126.301C167.679 126.245 167.703 126.197 167.732 126.15C167.748 126.079 167.725 126.001 167.727 125.927C167.807 125.923 167.888 125.919 167.968 125.914C168.081 125.918 168.188 125.888 168.296 125.858L168.561 125.988C168.653 125.96 168.746 125.932 168.838 125.903C168.919 125.971 168.999 126.039 169.08 126.108L169.126 126.449C169.24 126.41 169.355 126.372 169.469 126.333C169.56 126.323 169.655 126.341 169.747 126.342C169.749 126.283 169.751 126.224 169.753 126.165C169.77 126.04 169.723 125.921 169.7 125.8C169.628 125.779 169.557 125.759 169.485 125.738C169.446 125.702 169.423 125.643 169.39 125.598C169.417 125.546 169.415 125.474 169.464 125.438C169.557 125.378 169.602 125.276 169.664 125.189C169.595 125.203 169.526 125.218 169.457 125.233C169.436 125.181 169.414 125.129 169.393 125.076C169.264 125.049 169.135 125.021 169.006 124.993C169.028 124.927 169.051 124.86 169.074 124.793C169.057 124.692 169.017 124.59 168.992 124.489C169.005 124.425 168.987 124.345 169.021 124.29C169.092 124.176 169.235 124.167 169.346 124.111C169.519 124.233 169.692 124.354 169.867 124.473C169.954 124.504 170.041 124.564 170.135 124.556C170.277 124.557 170.424 124.5 170.56 124.554C170.679 124.61 170.807 124.588 170.934 124.582C171.025 124.551 171.078 124.611 171.128 124.68C171.145 124.765 171.119 124.864 171.119 124.954C171.114 125.036 171.223 125.073 171.267 125.135C171.363 125.163 171.473 125.157 171.574 125.173C171.666 125.109 171.769 125.056 171.821 124.952C171.927 124.852 171.859 124.684 171.942 124.575C171.987 124.46 172.143 124.469 172.213 124.385C172.238 124.284 172.354 124.293 172.432 124.256C172.489 124.285 172.536 124.369 172.594 124.415C172.69 124.419 172.791 124.47 172.883 124.441C172.993 124.422 173.004 124.292 173.045 124.207C173.22 124.215 173.395 124.223 173.57 124.232C173.585 124.348 173.559 124.464 173.552 124.58C173.713 124.627 173.884 124.663 174.038 124.715C174.36 124.741 174.684 124.775 175.007 124.749L175.05 124.745C175.06 124.493 175.069 124.278 175.074 124.255C175.089 124.189 175.013 123.323 175.069 123.086C175.126 122.849 175.164 122.456 175.164 122.319C175.164 122.181 175.145 121.983 175.093 121.741C175.041 121.5 175.187 120.785 175.159 120.595C175.131 120.406 175.145 120.169 175.192 120.056C175.239 119.942 175.258 118.484 175.206 118.3C175.154 118.115 175.23 116.496 175.211 116.378C175.192 116.259 175.126 115.771 175.103 115.563C175.079 115.355 175.098 114.517 175.069 114.399C175.041 114.28 175.046 113.835 174.961 113.584C174.876 113.333 174.84 112.49 174.809 112.396C174.777 112.302 174.783 111.838 174.783 111.818C174.783 111.798 174.67 111.825 174.644 111.847C174.617 111.869 174.67 112.151 174.634 112.211C174.597 112.272 174.334 112.339 174.235 112.288C174.135 112.238 174.15 112.168 174.122 112.136C174.093 112.104 174.198 111.991 174.185 111.974C174.172 111.957 174.418 111.942 174.461 111.942C174.504 111.942 174.557 111.807 174.554 111.741C174.551 111.676 174.611 111.703 174.645 111.671C174.68 111.639 174.628 111.491 174.548 111.326C174.468 111.16 174.487 110.758 174.44 110.588C174.393 110.417 174.308 109.432 174.256 109.3C174.204 109.167 174.143 108.111 174.134 108.035C174.124 107.96 174.198 106.879 174.221 106.737C174.244 106.594 174.249 106.262 174.22 106.176C174.191 106.091 174.162 106.098 174.069 106.106L173.83 105.834C173.804 105.754 173.611 105.319 173.491 105.138C173.372 104.957 173.352 104.395 173.265 104.187C173.179 103.98 172.959 102.902 172.886 102.621C172.813 102.34 172.314 101.214 172.247 101.087C172.181 100.96 171.615 99.8688 171.556 99.5876C171.496 99.3064 171.489 99.1524 171.363 99.052C171.237 98.9516 171.256 98.8243 171.15 98.5832C171.044 98.3422 170.87 98.0073 170.711 97.8198C170.551 97.6323 170.338 96.106 170.298 95.7043C170.258 95.3026 170.551 93.2135 170.565 93.0796C170.578 92.9457 170.791 91.2188 171.03 90.4555C171.27 89.6923 171.509 89.1829 171.522 89.1294C171.536 89.0758 171.602 88.0181 171.682 87.8574C171.762 87.6967 172.028 86.5588 171.988 86.2374C171.948 85.9161 172.4 84.5499 172.454 84.1482C172.465 84.0595 172.503 83.8968 172.552 83.7037L172.5 83.6866C172.356 83.5764 172.242 83.4383 172.161 83.2753C172.117 83.1475 172.123 83.0033 172.096 82.8693C172.054 82.7694 172.147 82.7022 172.192 82.6233C172.065 82.5733 171.968 82.4771 171.888 82.369C171.849 82.2835 171.812 82.1954 171.709 82.1794C171.625 82.1125 171.541 82.1503 171.457 82.1968C171.31 82.1943 171.159 82.1559 171.011 82.1396C170.895 82.0848 170.87 82.1661 170.86 82.2689C170.825 82.3527 170.852 82.4863 170.738 82.5047C170.682 82.5933 170.664 82.7167 170.623 82.8184C170.597 82.9058 170.583 83.0042 170.474 83.0133C170.378 83.0005 170.282 82.9403 170.186 82.9094C170.12 82.84 170.083 82.7377 170.028 82.6559C169.989 82.5774 169.901 82.5016 169.977 82.4168C169.993 82.3122 170.127 82.3711 170.105 82.2388C170.131 82.1587 170.111 82.0324 170.23 82.0437C170.3 82.0032 170.278 81.8719 170.311 81.7952C170.372 81.6256 170.319 81.4499 170.308 81.2764C170.217 81.2439 170.102 81.248 170.06 81.1451L169.762 81.1846C169.758 81.2787 169.755 81.3725 169.751 81.4666C169.708 81.5419 169.62 81.5978 169.56 81.6656C169.543 81.9071 169.526 82.148 169.509 82.3895C169.338 82.4327 169.167 82.4761 168.996 82.5194C169.037 82.2831 169.079 82.0467 169.121 81.8104L168.768 81.767C168.693 81.7788 168.554 81.6967 168.524 81.7739C168.343 81.7827 168.161 81.7914 167.979 81.8002C167.933 81.9432 167.887 82.0864 167.84 82.2294C167.753 82.0271 167.667 81.8245 167.58 81.6222C167.563 81.5033 167.428 81.5121 167.341 81.4685C167.368 81.2354 167.395 81.0023 167.422 80.7692C167.418 80.6906 167.471 80.5687 167.433 80.5166C167.264 80.481 167.094 80.4871 166.924 80.5089C166.819 80.494 166.754 80.5439 166.718 80.6404C166.626 80.7449 166.482 80.6835 166.362 80.6857C166.223 80.6688 166.255 80.7161 166.265 80.8242C166.175 80.8905 165.966 80.8553 165.831 80.8831C165.608 80.9712 165.7 80.716 165.683 80.5802C165.709 80.4222 165.731 80.258 165.927 80.3516C166.118 80.3193 166.141 80.5328 166.288 80.3654C166.403 80.2607 166.548 80.2109 166.689 80.2208C166.79 80.0952 166.586 79.8665 166.806 79.8563C166.951 79.8226 166.792 79.5703 166.684 79.5401C166.733 79.3571 166.781 79.1741 166.83 78.9912C167.057 79.0168 167.283 79.0429 167.51 79.0686C167.681 79.0722 167.847 79.081 167.778 79.2974C167.604 79.3082 167.43 79.3187 167.256 79.3295L167.249 80.199C167.239 80.3574 167.51 80.2828 167.619 80.3419C167.778 80.3419 167.867 80.5046 168.033 80.4867C168.172 80.4589 168.369 80.5011 168.457 80.3693C168.485 80.2146 168.432 80.0345 168.429 79.8704C168.483 79.6791 168.709 79.7053 168.858 79.6349C168.529 79.2918 168.2 78.9487 167.871 78.6056C167.843 78.4651 167.902 78.295 167.908 78.1432C167.907 77.9988 168.028 77.7815 167.81 77.767C167.672 77.7437 167.523 77.5741 167.397 77.6935C167.374 77.9243 167.418 78.1593 167.529 78.3629C167.573 78.433 167.296 78.2169 167.294 78.1247C167.288 77.921 167.065 77.9228 166.916 77.8983C166.803 77.8011 166.739 77.6288 166.645 77.5033C166.518 77.3619 166.626 77.2222 166.746 77.1252C166.792 76.8757 166.946 77.0851 167.014 76.916C167.198 76.8019 167.389 76.7066 167.609 76.6976C167.785 76.7367 167.799 76.4405 167.652 76.4022C167.522 76.3179 167.352 76.2447 167.499 76.0813C167.534 75.9522 167.715 75.7563 167.547 75.6614C167.417 75.5351 167.196 75.487 167.046 75.6023C166.897 75.5256 166.787 75.7138 166.642 75.6363C166.502 75.5787 166.352 75.7875 166.265 75.5766C166.172 75.6942 166.079 75.8113 165.986 75.929C165.877 75.7839 165.765 75.6401 165.708 75.4646C165.574 75.5465 165.439 75.6282 165.304 75.7101C165.161 75.663 164.956 75.7164 164.89 75.5453C164.878 75.3102 165.002 75.0677 164.974 74.8275C164.925 74.6421 165.19 74.7014 165.115 74.4809C165.308 74.4057 165.501 74.4494 165.694 74.4975C165.755 74.351 165.815 74.2046 165.875 74.0581C165.978 73.977 166.198 74.0541 166.232 73.8648C166.274 73.6887 166.551 73.8127 166.562 73.6155C166.589 73.4183 166.705 73.3767 166.882 73.4414C167.001 73.4962 167.261 73.4108 167.261 73.5835C167.349 73.901 167.146 74.2068 167.211 74.5271C167.36 74.6356 167.498 74.7575 167.619 74.8977C167.811 75.0213 167.754 75.2893 167.923 75.4301C168.086 75.5161 168.288 75.5419 168.475 75.5428C168.64 75.4571 168.887 75.4829 168.973 75.2911C169.009 75.0277 169.191 74.8406 169.33 74.623C169.57 74.7559 169.811 74.8892 170.051 75.0221C170.094 75.1603 170.209 75.2853 170.19 75.4351C170.178 75.5759 170.038 75.702 169.903 75.7399C169.755 75.7682 169.756 76.0223 169.572 75.9522C169.418 75.9453 169.391 76.1977 169.201 76.1418C169.041 76.1871 168.898 76.1821 168.809 76.0227C168.726 75.925 168.547 75.8092 168.435 75.9193C168.372 76.0996 168.388 76.3283 168.356 76.5274C168.587 76.6257 168.818 76.724 169.05 76.8223C169.215 76.8643 169.332 76.939 169.277 77.128C169.24 77.3786 169.344 77.6062 169.421 77.8383C169.455 78.1198 169.416 78.4121 169.422 78.6979C169.335 78.8761 169.626 78.962 169.624 78.785C169.699 78.6661 169.847 78.5863 169.949 78.4818C169.92 78.2594 169.961 78.0353 169.965 77.8121L170.462 77.7388C170.576 77.6326 170.782 77.5907 170.789 77.408C170.799 77.2342 171.049 77.2536 171.067 77.071C171.101 76.85 171.297 77.0154 171.433 76.9621C171.634 77.0073 171.763 77.1896 171.881 77.3502C172.035 77.1651 172.088 76.925 172.096 76.6885C172.088 76.5034 172.148 76.3226 172.275 76.1902C172.398 76.069 172.553 76.0885 172.702 76.1429C172.792 76.3121 172.77 76.5041 172.818 76.6846C172.839 76.9044 172.931 77.1355 173.145 77.2278C173.528 77.2896 173.907 77.2589 174.296 77.2443L174.302 77.2429C174.338 76.9846 174.372 76.7431 174.396 76.6092C174.463 76.2342 175.088 74.5877 175.34 74.1592C175.593 73.7307 176.418 71.8155 176.671 71.2932C176.924 70.771 179.145 67.6646 179.371 67.2227C179.597 66.7808 180.462 65.3348 180.794 64.9063C181.033 64.5992 181.879 63.2074 182.37 62.4314L182.727 61.9049C182.811 61.8718 182.957 61.2231 183.089 60.9864C183.221 60.7497 183.559 60.2431 183.611 60.1769C183.662 60.1106 184.138 59.3768 184.241 59.32C184.344 59.2632 184.787 58.4817 184.904 58.3728C185.022 58.2639 185.163 58.0795 185.196 57.9801C185.229 57.8806 185.586 57.407 185.722 57.2697C185.859 57.1324 186.386 56.6545 186.616 56.2758C186.847 55.8971 187.176 55.6225 187.261 55.542C187.345 55.4615 187.637 55.0162 187.778 54.8457C187.919 54.6753 188.248 53.9466 188.488 53.7241C188.728 53.5016 189.01 53.0137 189.081 52.9474C189.151 52.8812 189.236 52.7155 189.25 52.6066C189.265 52.4978 189.457 52.2561 189.556 52.0431C189.655 51.83 189.622 51.5794 189.664 51.3474C189.707 51.1154 189.843 50.3342 189.89 50.178C189.937 50.0217 189.979 49.6572 190.017 49.4726C190.055 49.2879 190.196 48.7292 190.327 48.5351C190.459 48.3409 190.426 48.1847 190.506 47.9527C190.586 47.7207 190.803 47.3753 190.826 47.3374C190.85 47.2996 190.802 47.0724 190.911 46.9256C191.019 46.7788 191.005 46.594 191.038 46.4331C191.071 46.2721 191.122 45.9075 191.211 45.7418C191.301 45.5761 191.644 44.951 191.644 44.8421C191.644 44.7332 191.663 44.4494 191.672 44.3311C191.682 44.2127 191.809 43.7393 191.936 43.5925C192.063 43.4458 192.321 42.4517 192.382 42.3665C192.444 42.2812 192.519 41.7983 192.669 41.5569C192.82 41.3154 192.886 40.9887 192.956 40.7993C193.027 40.6099 193.436 39.3601 193.526 39.1329C193.615 38.9057 193.827 38.5409 193.878 38.3515C193.93 38.1621 193.954 38.0013 194.005 37.8167C194.057 37.632 194.372 36.7467 194.367 36.5384C194.363 36.3301 194.297 36.3017 194.207 36.1976C194.118 36.0934 194.151 35.7054 194.151 35.6627C194.151 35.6201 193.864 35.6672 193.846 35.6672C193.827 35.6672 193.61 35.6628 193.554 35.7669C193.497 35.8711 193.563 35.9703 193.634 36.1218C193.704 36.2733 193.563 36.4672 193.54 36.5525C193.516 36.6377 193.375 36.5624 193.337 36.5624C193.3 36.5624 193.375 36.3631 193.403 36.2117C193.431 36.0602 193.253 36.0368 193.229 36.0179C193.206 35.999 193.295 35.9752 193.328 35.8899C193.361 35.8047 193.488 35.6109 193.619 35.5209C193.751 35.4311 194.005 35.516 194.057 35.516C194.109 35.516 193.991 35.4353 194.015 35.2034C194.038 34.9714 194.076 34.0387 194.062 33.9961C194.048 33.9535 194.047 33.1869 194.104 32.9455C194.16 32.704 194.245 31.7475 194.269 31.577C194.292 31.4066 194.349 30.876 194.391 30.6298C194.433 30.3837 194.508 29.7304 194.513 29.5884C194.518 29.4463 194.72 28.7224 194.692 28.6135C194.664 28.5046 194.781 27.9508 194.786 27.9082C194.791 27.8656 195.021 27.0229 195.03 26.8335C195.04 26.6442 195.346 25.7304 195.416 25.5505C195.487 25.3706 195.501 25.1478 195.553 24.8921C195.604 24.6365 195.717 23.8778 195.727 23.7874C195.737 23.697 195.914 23.1746 195.964 23.024C196.014 22.8733 196.389 22.0699 196.432 21.9762C196.475 21.8824 196.629 21.7721 196.679 21.6917C196.729 21.6114 196.745 21.38 196.808 21.2595C196.871 21.1389 196.775 21.0956 196.775 21.0956C196.775 21.0956 196.698 21.2364 196.642 21.3134C196.585 21.3904 196.565 21.5541 196.549 21.6177C196.532 21.6813 196.326 21.5712 196.299 21.5411C196.273 21.511 196.443 21.0754 196.502 20.8579C196.562 20.6402 196.639 20.4062 196.639 20.4062C196.639 20.4062 196.569 20.1685 196.502 20.0815C196.436 19.9944 196.399 19.8169 196.409 19.7064C196.419 19.5959 196.403 19.4017 196.456 19.2376C196.509 19.0736 196.685 18.7586 196.732 18.608C196.778 18.4573 197.028 17.9889 197.011 17.865C196.994 17.7412 197.4 16.7304 197.453 16.5864C197.507 16.4425 197.6 16.2817 197.616 16.1143C197.633 15.947 197.786 15.679 197.773 15.5618C197.76 15.4447 197.969 15.0931 198.016 14.9726C198.062 14.852 198.082 14.6782 198.052 14.6848C198.022 14.6915 198.328 13.9782 198.405 13.841C198.481 13.7037 198.621 13.5668 198.667 13.5065C198.714 13.4463 198.468 13.4729 198.428 13.4629C198.388 13.4528 198.332 13.4295 198.238 13.4195C198.145 13.4094 198.249 13.346 198.249 13.3092C198.249 13.2724 198.361 13.2086 198.368 13.1215C198.375 13.0345 198.358 12.8235 198.362 12.713C198.365 12.6025 198.518 12.6193 198.614 12.6193C198.711 12.6193 198.731 12.5222 198.751 12.5021C198.771 12.482 198.847 12.0437 198.874 11.9065C198.9 11.7692 199 11.6387 199 11.6387L198.837 11.6185C198.837 11.6185 198.804 11.3004 198.824 11.1732C198.844 11.046 198.834 10.7246 198.84 10.7011C198.847 10.6777 198.691 10.644 198.618 10.5469C198.545 10.4498 198.574 10.0417 198.591 9.94795C198.608 9.85421 198.578 9.48287 198.565 9.23181C198.551 8.98073 198.442 8.42479 198.418 8.35784C198.395 8.29089 198.262 8.04998 198.249 7.95624C198.235 7.8625 198.235 7.61492 198.179 7.46094C198.122 7.30694 197.999 6.48306 197.972 6.36254C197.946 6.24203 197.963 5.8636 197.963 5.65939C197.963 5.45518 197.863 4.55503 197.853 4.51152C197.843 4.468 197.66 3.80481 197.62 3.68095C197.58 3.55709 197.454 3.46038 197.454 3.46038C197.454 3.46038 197.43 3.51376 197.477 3.7213C197.523 3.92886 197.703 4.27375 197.72 4.3407C197.736 4.40765 197.746 4.47805 197.727 4.57177C197.707 4.66551 197.803 4.98682 197.833 5.05712C197.863 5.12743 197.73 5.25818 197.716 5.27492C197.703 5.29166 197.793 6.05095 197.787 6.1815C197.78 6.31206 197.899 6.77437 197.959 6.86475C198.019 6.95514 198.049 7.24977 198.019 7.21965C197.989 7.18952 197.76 7.05213 197.653 7.02534C197.547 6.99856 197.67 6.92821 197.757 6.85121C197.843 6.77421 197.83 6.59708 197.753 6.52009C197.677 6.44309 197.796 6.41964 197.743 6.31251C197.69 6.20539 197.527 5.90714 197.54 5.80671C197.553 5.70628 197.404 5.5591 197.367 5.46536C197.331 5.37163 197.32 5.21128 197.294 5.18786C197.267 5.16445 197.024 5.1674 197.004 5.1674C196.984 5.1674 196.805 5.23141 196.718 5.30505C196.632 5.37869 196.649 5.41865 196.622 5.4789C196.596 5.53916 196.658 5.67315 196.722 5.7401C196.785 5.80705 196.825 5.94422 196.831 6.01788C196.838 6.09152 196.752 6.00093 196.662 5.98084C196.572 5.96076 196.675 6.05487 196.709 6.14861C196.742 6.24235 196.619 6.22205 196.575 6.22545C196.532 6.22879 196.469 6.18544 196.459 6.08836C196.449 5.99126 196.346 5.85045 196.356 5.69311C196.366 5.53577 196.502 5.52242 196.559 5.41865C196.615 5.31488 196.616 5.24774 196.476 5.22766C196.336 5.20758 196.193 5.37835 196.193 5.40179C196.193 5.42522 195.91 5.27473 195.804 5.08725C195.698 4.89979 195.601 4.81613 195.515 4.78266C195.428 4.74919 195.303 4.81617 195.235 4.77935C195.167 4.74245 195.115 4.8027 195.057 4.79095C194.999 4.77924 194.866 4.57812 194.807 4.48941C194.747 4.4007 194.808 4.32888 194.823 4.26193C194.838 4.19498 194.763 4.12303 194.725 4.07951C194.687 4.03599 194.839 3.98255 194.831 3.91727C194.823 3.852 194.803 3.72546 194.791 3.66436C194.78 3.60327 194.658 3.47287 194.572 3.43772C194.485 3.40257 194.437 3.41302 194.327 3.36281C194.217 3.31259 194.208 3.40971 194.191 3.41975C194.174 3.42979 194.075 3.25257 194.018 3.18896C193.962 3.12542 193.859 3.14545 193.815 3.12871C193.772 3.11197 193.782 3.05535 193.795 3.00848C193.808 2.96132 193.569 2.95456 193.526 2.96121C193.483 2.9679 193.31 2.84759 193.263 2.73042C193.217 2.61326 193.107 2.50605 193.02 2.40897C192.934 2.31189 192.797 2.30892 192.628 2.33904C192.458 2.36917 192.342 2.3721 192.036 2.26497C191.73 2.15784 191.657 2.1815 191.63 2.21163C191.603 2.24175 191.344 2.13793 191.227 2.09775C191.111 2.05757 190.978 2.13127 190.832 2.12788C190.686 2.12452 190.32 2.13482 190.2 2.19173C190.08 2.24866 189.897 2.19486 189.648 2.18481C189.398 2.17477 189.305 2.14438 189.289 2.14778C189.272 2.15112 189.135 2.05754 189.139 1.98056C189.142 1.90356 189.096 1.69578 189.066 1.58531C189.036 1.47485 188.919 1.5016 188.88 1.43799C188.84 1.37479 188.727 1.36125 188.683 1.3747C188.64 1.38809 188.481 1.58897 188.374 1.55214C188.268 1.51531 188.287 1.4181 188.244 1.32771C188.201 1.23733 188.045 1.42481 188.018 1.42141C187.992 1.41807 187.759 1.33454 187.652 1.33794C187.546 1.34128 187.49 1.24065 187.476 1.24065C187.463 1.24065 187.38 1.58235 187.36 1.63258C187.34 1.68279 187.247 1.72609 187.197 1.71605C187.147 1.70601 187.267 1.55179 187.317 1.50156C187.367 1.45135 187.303 0.986362 187.303 0.986362C187.303 0.986362 187.141 1.04983 187.17 1.12014C187.2 1.19044 187.237 1.2775 187.22 1.32771C187.203 1.37792 186.984 1.2877 186.874 1.16049C186.768 1.03676 186.681 0.693868 186.66 0.51179L186.303 0.509578C185.903 0.0377682 185.684 0.787786 185.572 0.184537C185.516 0.0383944 185.412 -0.00780014 185.286 0.000733343L185.286 0.000792725ZM148.845 205.045C148.829 205.045 148.813 205.049 148.793 205.054C148.715 205.076 148.415 205.126 148.387 205.187C148.358 205.248 148.312 205.283 148.201 205.323C148.091 205.362 147.813 205.391 147.802 205.474C147.791 205.556 147.699 205.642 147.613 205.656C147.528 205.671 147.221 205.915 147.171 206.037C147.121 206.159 146.982 206.292 146.979 206.389C146.975 206.486 146.829 206.672 146.758 206.704C146.687 206.737 146.309 206.855 146.159 206.823C146.009 206.791 145.442 206.755 145.328 206.762C145.214 206.769 144.498 206.809 144.498 206.809C144.397 206.869 144.447 207.011 144.225 207.164C144.003 207.316 143.711 207.326 143.691 207.428C143.671 207.529 143.61 207.691 143.675 207.697C143.741 207.702 143.897 207.605 144.099 207.717C144.301 207.829 144.422 207.9 144.417 208.052C144.412 208.204 144.391 208.286 144.321 208.357C144.25 208.428 144.134 208.539 144.185 208.62C144.235 208.701 144.306 208.803 144.341 208.757C144.376 208.711 144.457 208.422 144.603 208.412C144.75 208.402 145.385 208.468 145.541 208.453C145.697 208.438 146.08 208.453 146.277 208.488C146.474 208.524 147.477 208.752 147.668 208.828C147.86 208.904 149.392 209.61 149.549 209.716C149.705 209.823 151.581 210.917 151.713 211.032C151.845 211.147 152.59 211.635 152.779 211.732C152.968 211.829 153.973 212.45 154.09 212.561C154.208 212.672 154.682 213.052 154.793 213.174C154.903 213.296 154.992 213.346 155.064 213.332C155.135 213.318 155.185 213.303 155.082 213.217C154.978 213.131 154.586 212.701 154.504 212.593C154.422 212.485 154.03 212.18 153.941 212.087C153.852 211.994 153.51 211.624 153.381 211.516C153.253 211.409 152.95 211.14 152.836 211.032C152.722 210.924 152.358 210.684 152.233 210.619C152.108 210.555 151.845 210.354 151.731 210.224C151.617 210.095 151.353 209.88 151.246 209.823C151.139 209.765 150.586 209.216 150.468 209.127C150.351 209.037 149.988 208.761 149.891 208.653C149.795 208.546 149.296 207.942 149.217 207.828C149.139 207.713 148.982 207.246 149.021 207.15C149.061 207.053 149.25 207.124 149.31 206.981C149.371 206.837 149.36 206.866 149.445 206.794C149.531 206.723 149.588 206.597 149.595 206.485C149.603 206.374 149.866 206.17 149.909 206.084C149.951 205.998 150.073 205.955 149.991 205.818C149.909 205.682 149.698 205.485 149.588 205.402C149.477 205.32 149.182 205.14 149.039 205.097C148.932 205.064 148.891 205.044 148.845 205.045ZM137.061 210.878C137.043 210.877 136.912 210.966 136.91 211.006C136.907 211.047 136.816 211.122 136.775 211.158C136.733 211.195 136.744 211.258 136.744 211.301C136.744 211.344 136.668 211.436 136.697 211.452C136.727 211.468 136.883 211.362 136.923 211.312C136.923 211.312 137.051 211.266 137.075 211.266C137.099 211.266 137.148 211.27 137.185 211.316C137.221 211.362 137.317 211.383 137.386 211.374C137.455 211.365 137.545 211.42 137.598 211.448C137.651 211.476 137.728 211.523 137.776 211.527C137.824 211.53 137.864 211.625 137.926 211.658C137.987 211.691 138.059 211.654 138.087 211.609C138.115 211.565 138.174 211.45 138.217 211.412C138.26 211.374 138.269 211.254 138.269 211.254C138.269 211.254 138.227 211.235 138.182 211.26C138.136 211.286 138.144 211.355 138.117 211.41C138.091 211.464 138.079 211.539 138.052 211.552C138.024 211.565 137.983 211.471 137.971 211.433C137.96 211.395 137.877 211.396 137.815 211.362C137.753 211.327 137.807 211.249 137.753 211.247C137.699 211.246 137.498 211.269 137.428 211.259C137.357 211.249 137.196 211.085 137.148 211.027C137.1 210.968 137.175 210.9 137.176 210.895C137.177 210.89 137.079 210.88 137.061 210.878V210.878ZM130.449 212.002C130.348 212.013 130.283 212.092 130.157 212.053C130.031 212.015 129.784 212.01 129.779 212.023C129.773 212.036 129.673 212.076 129.61 212.122C129.547 212.168 129.454 212.198 129.393 212.175C129.333 212.152 129.265 212.066 129.265 212.066C129.212 212.104 129.002 212.193 128.987 212.254C128.972 212.314 128.96 212.325 128.987 212.353C129.015 212.381 129.113 212.378 129.141 212.327C129.169 212.276 129.239 212.239 129.323 212.236C129.406 212.234 129.673 212.183 129.786 212.178C129.9 212.173 130.21 212.114 130.295 212.145C130.381 212.175 130.389 212.216 130.517 212.183C130.646 212.15 130.659 212.096 130.649 212.091C130.639 212.086 130.55 211.992 130.449 212.002ZM113.524 215.485C113.515 215.478 113.495 215.568 113.435 215.613C113.374 215.657 113.24 215.881 113.176 215.912C113.112 215.942 113.078 216 113.1 216.041C113.1 216.041 113.381 216.052 113.454 216.067C113.527 216.081 113.636 215.86 113.674 215.802C113.711 215.745 113.846 215.776 113.866 215.749C113.886 215.722 113.797 215.665 113.759 215.629C113.722 215.593 113.659 215.622 113.604 215.597C113.549 215.571 113.533 215.492 113.524 215.485Z" fill="#FCDA05"/>
</svg>
